
<!-- Generator: visioncortex VTracer 0.6.4 -->
<svg version="1.1" xmlns="http://www.w3.org/2000/svg" viewBox="0 0 2000 1500" preserveAspectRatio="xMidYMid meet">
<path d="M0 0 C660 0 1320 0 2000 0 C2000 495 2000 990 2000 1500 C1340 1500 680 1500 0 1500 C0 1005 0 510 0 0 Z " fill="#2B293C" transform="translate(0,0)"/>
<path d="M0 0 C30.36 0 60.72 0 92 0 C92.99 2.97 93.98 5.94 95 9 C97.812 12.805 100.28 14.241 104.68 15.633 C105.894 16.022 105.894 16.022 107.132 16.418 C107.749 16.61 108.365 16.802 109 17 C109.07 39.913 109.123 62.826 109.155 85.739 C109.171 96.377 109.192 107.016 109.226 117.654 C109.256 126.923 109.276 136.193 109.282 145.462 C109.286 150.373 109.295 155.283 109.317 160.194 C109.337 164.812 109.344 169.429 109.339 174.047 C109.34 175.746 109.346 177.445 109.358 179.144 C109.372 181.455 109.369 183.766 109.361 186.078 C109.364 187.374 109.366 188.67 109.369 190.005 C109.247 190.994 109.126 191.982 109 193 C108.01 193.66 107.02 194.32 106 195 C106.575 198.931 106.575 198.931 109 202 C109.241 204.101 109.241 204.101 109.227 206.725 C109.227 207.706 109.227 208.687 109.227 209.697 C109.216 210.759 109.206 211.82 109.195 212.914 C109.192 213.999 109.19 215.084 109.187 216.201 C109.176 219.676 109.15 223.15 109.125 226.625 C109.115 228.977 109.106 231.328 109.098 233.68 C109.076 239.453 109.042 245.227 109 251 C108.384 251.188 107.769 251.375 107.135 251.568 C106.326 251.824 105.517 252.08 104.684 252.344 C103.882 252.593 103.081 252.843 102.256 253.1 C97.864 254.853 95.547 258.18 93 262 C92.67 263.98 92.34 265.96 92 268 C61.64 268 31.28 268 0 268 C-0.99 265.03 -1.98 262.06 -3 259 C-7.588 254.147 -10.555 252.771 -17 251 C-17.076 244.058 -17.129 237.117 -17.165 230.175 C-17.18 227.812 -17.2 225.449 -17.226 223.086 C-17.263 219.695 -17.28 216.305 -17.293 212.914 C-17.308 211.853 -17.324 210.791 -17.34 209.697 C-17.34 208.717 -17.34 207.736 -17.341 206.725 C-17.347 205.859 -17.354 204.993 -17.361 204.101 C-17.242 203.407 -17.123 202.714 -17 202 C-15.515 201.01 -15.515 201.01 -14 200 C-13.75 196.916 -13.75 196.916 -14 194 C-14.99 193.67 -15.98 193.34 -17 193 C-17 134.92 -17 76.84 -17 17 C-14.03 16.01 -11.06 15.02 -8 14 C-2.75 9.036 -2.104 7.363 0 0 Z " fill="#FDDB00" transform="translate(283,620)"/>
<path d="M0 0 C5.668 1.647 10.706 4.263 15.938 6.938 C23.565 10.794 31.218 14.58 38.938 18.25 C48.623 22.857 58.285 27.512 67.938 32.188 C68.992 32.698 68.992 32.698 70.067 33.219 C74.045 35.145 78.023 37.072 82 39 C81.986 39.897 81.972 40.794 81.958 41.719 C81.942 43.48 81.942 43.48 81.926 45.277 C81.912 46.443 81.898 47.608 81.884 48.808 C82.023 52.641 82.706 54.915 85 58 C87.551 60.343 87.551 60.343 90 62 C89.415 65.49 88.517 68.349 86.95 71.517 C86.525 72.383 86.1 73.25 85.662 74.142 C85.199 75.073 84.735 76.003 84.258 76.961 C83.775 77.943 83.292 78.924 82.794 79.935 C81.243 83.085 79.684 86.23 78.125 89.375 C76.105 93.465 74.087 97.557 72.07 101.648 C71.314 103.181 71.314 103.181 70.542 104.745 C66.138 113.682 61.836 122.666 57.55 131.66 C54.267 138.546 50.932 145.406 47.591 152.264 C42.241 163.246 36.911 174.237 31.625 185.25 C30.915 186.721 30.915 186.721 30.191 188.222 C27.74 193.317 25.339 198.429 22.996 203.574 C22.504 204.642 22.011 205.71 21.503 206.81 C20.568 208.84 19.646 210.877 18.739 212.921 C18.321 213.822 17.903 214.724 17.473 215.652 C17.114 216.446 16.756 217.24 16.387 218.058 C14.605 220.553 12.813 220.927 10 222 C8.793 226.081 8.793 226.081 10 230 C9.139 232.252 9.139 232.252 7.754 235.066 C7.25 236.102 6.746 237.138 6.227 238.205 C5.678 239.313 5.128 240.421 4.562 241.562 C3.447 243.834 2.332 246.106 1.219 248.379 C0.668 249.501 0.118 250.622 -0.449 251.778 C-1.823 254.632 -3.134 257.501 -4.406 260.402 C-4.929 261.582 -4.929 261.582 -5.463 262.785 C-6.098 264.229 -6.719 265.678 -7.324 267.135 C-9.388 271.763 -9.388 271.763 -12.449 272.949 C-14.778 272.996 -17.051 272.968 -19.375 272.812 C-24.377 272.754 -26.955 274.088 -31 277 C-32.903 279.086 -32.903 279.086 -34 281 C-38.313 280.36 -41.776 278.838 -45.691 276.945 C-46.319 276.643 -46.946 276.341 -47.592 276.03 C-48.912 275.392 -50.23 274.751 -51.548 274.108 C-53.556 273.128 -55.57 272.159 -57.584 271.191 C-58.87 270.568 -60.156 269.945 -61.441 269.32 C-62.604 268.756 -63.766 268.191 -64.963 267.61 C-68 266 -68 266 -72 263 C-65.73 263 -59.46 263 -53 263 C-53.118 258.198 -53.118 258.198 -53.27 253.397 C-53.331 248.53 -53.331 248.53 -51.931 246.288 C-48.955 244.302 -46.334 244.716 -42.812 244.812 C-40.904 244.853 -40.904 244.853 -38.957 244.895 C-37.981 244.929 -37.005 244.964 -36 245 C-36.011 243.93 -36.022 242.861 -36.034 241.759 C-36.301 215.63 -36.498 189.501 -36.622 163.371 C-36.683 150.734 -36.767 138.098 -36.905 125.462 C-37.026 114.437 -37.102 103.413 -37.129 92.387 C-37.145 86.559 -37.181 80.732 -37.269 74.905 C-37.958 27.594 -37.958 27.594 -24 8 C-23.406 8.159 -22.811 8.317 -22.199 8.48 C-15.367 10.094 -9.871 8.547 -4 5 C-1.471 2.452 -1.471 2.452 0 0 Z " fill="#FDDA00" transform="translate(440,638)"/>
<path d="M0 0 C1.042 -0.012 2.084 -0.023 3.158 -0.035 C13.755 0.004 23.411 2.217 32.812 7.125 C33.494 7.475 34.175 7.825 34.876 8.186 C43.4 12.704 49.125 18.446 54.562 26.375 C53.124 29.762 51.341 31.734 48.562 34.125 C47.511 35.045 47.511 35.045 46.438 35.984 C44.562 37.375 44.562 37.375 42.562 37.375 C41.336 35.836 41.336 35.836 39.938 33.75 C33.912 25.517 24.817 20.047 14.867 17.754 C10.342 17.235 5.865 17.151 1.312 17.125 C0.422 17.104 -0.469 17.084 -1.387 17.062 C-12.207 17 -20.581 20.321 -29.438 26.375 C-30.065 26.793 -30.693 27.21 -31.34 27.641 C-39.995 34.156 -45.223 44.97 -47.438 55.375 C-47.843 58.992 -47.916 62.55 -47.875 66.188 C-47.867 67.15 -47.858 68.113 -47.85 69.105 C-47.517 83.2 -42.74 94.598 -33.312 105.125 C-22.301 115.418 -9.614 117.91 4.832 117.555 C15.897 117.022 27.068 112.19 34.676 103.992 C39.479 97.33 43.574 89.331 45.562 81.375 C31.372 81.375 17.183 81.375 2.562 81.375 C2.562 76.425 2.562 71.475 2.562 66.375 C22.362 66.375 42.163 66.375 62.562 66.375 C62.562 85.491 58.501 102.13 44.801 116.199 C44.062 116.917 43.324 117.635 42.562 118.375 C41.937 119.021 41.312 119.667 40.668 120.332 C28.901 131.703 12.921 134.626 -2.801 134.457 C-4.601 134.416 -4.601 134.416 -6.438 134.375 C-7.665 134.35 -7.665 134.35 -8.918 134.324 C-24.898 133.275 -39.72 123.769 -50.438 112.375 C-56.854 104.45 -60.496 96.079 -63.438 86.375 C-63.805 85.288 -64.172 84.202 -64.551 83.082 C-68.875 65.003 -64.828 44.944 -55.565 29.146 C-52.729 24.692 -49.239 21.007 -45.438 17.375 C-44.519 16.428 -44.519 16.428 -43.582 15.461 C-31.872 4.126 -15.873 -0.176 0 0 Z " fill="#FBD900" transform="translate(750.4375,650.625)"/>
<path d="M0 0 C0.612 0.247 1.225 0.495 1.856 0.75 C13.811 5.736 22.363 12.422 30 23 C28.561 26.387 26.779 28.359 24 30.75 C22.948 31.67 22.948 31.67 21.875 32.609 C20 34 20 34 18 34 C16.974 32.681 16.005 31.318 15.062 29.938 C8.313 21.087 -1.993 15.555 -13 14 C-25.196 12.891 -37.235 12.451 -48 19 C-48.813 19.458 -49.627 19.915 -50.465 20.387 C-60.969 26.766 -67.993 37.151 -71.572 48.872 C-73.96 60.735 -73.528 76.184 -68 87 C-67.564 87.874 -67.129 88.748 -66.68 89.648 C-60.347 101.172 -50.841 108.859 -38.246 112.879 C-24.274 115.857 -10.455 114.821 1.812 107.25 C12.268 99.687 16.571 89.811 21 78 C6.81 78 -7.38 78 -22 78 C-22 73.05 -22 68.1 -22 63 C-2.2 63 17.6 63 38 63 C38 82.466 32.317 100.191 18.938 114.688 C5.244 127.703 -11.723 131.561 -30.098 131.277 C-47.346 130.607 -62.844 121.577 -74.625 109.438 C-88.658 93.343 -90.73 74.412 -90 54 C-89.363 45.479 -86.972 38.533 -83 31 C-82.591 30.179 -82.183 29.358 -81.762 28.512 C-73.862 13.901 -59.859 3.282 -44.062 -1.527 C-30.625 -4.607 -12.898 -5.237 0 0 Z " fill="#FBD901" transform="translate(1315,654)"/>
<path d="M0 0 C3.96 0 7.92 0 12 0 C12 142.89 12 285.78 12 433 C8.04 433 4.08 433 0 433 C0 290.11 0 147.22 0 0 Z " fill="#F8D601" transform="translate(585,537)"/>
<path d="M0 0 C1.493 -0.044 1.493 -0.044 3.016 -0.088 C14.063 -0.182 21.678 3.204 29.613 10.828 C39.898 22.126 40.875 33.101 40.875 48.312 C18.435 48.312 -4.005 48.312 -27.125 48.312 C-23.389 62.205 -23.389 62.205 -13.625 71.625 C-6.481 75.069 1.984 75.571 9.668 73.594 C17.16 70.783 22.082 66.765 26.875 60.312 C31.546 61.87 34.962 64.397 38.875 67.312 C33.911 77.672 25.5 83.452 14.875 87.312 C3.087 91.233 -9.575 90.464 -20.707 85.059 C-31.825 78.941 -38.12 69.566 -41.685 57.402 C-44.589 43.613 -42.398 28.369 -34.777 16.594 C-25.882 4.313 -14.648 0.139 0 0 Z " fill="#FAD801" transform="translate(1103.125,695.6875)"/>
<path d="M0 0 C4.894 3.23 8.708 7.033 10.563 12.73 C11.144 15.748 11.119 18.622 11.114 21.696 C11.114 22.36 11.114 23.024 11.114 23.708 C11.113 25.894 11.106 28.08 11.098 30.266 C11.096 31.784 11.094 33.303 11.093 34.822 C11.09 38.814 11.08 42.805 11.069 46.797 C11.058 50.872 11.054 54.948 11.049 59.023 C11.038 67.016 11.021 75.008 11 83 C6.38 83 1.76 83 -3 83 C-3.33 79.7 -3.66 76.4 -4 73 C-5.114 74.072 -6.227 75.145 -7.375 76.25 C-15.512 83.403 -25.046 85.384 -35.609 85.277 C-44.845 84.522 -51.625 80.086 -57.539 73.211 C-62.544 65.969 -61.867 57.398 -61 49 C-59.182 41.399 -53.277 36.778 -46.961 32.676 C-36.603 27.46 -22.184 28.655 -11.375 31.938 C-8.828 32.851 -6.417 33.791 -4 35 C-4.06 32.102 -4.147 29.209 -4.25 26.312 C-4.264 25.496 -4.278 24.679 -4.293 23.838 C-4.451 19.936 -4.723 17.491 -6.672 14.043 C-11.527 9.783 -16.962 9.612 -23.188 9.625 C-24.309 9.626 -24.309 9.626 -25.452 9.628 C-31.881 9.764 -37.198 11.19 -43 14 C-43.99 14.462 -43.99 14.462 -45 14.934 C-46.351 15.587 -47.68 16.286 -49 17 C-51.31 13.37 -53.62 9.74 -56 6 C-40.054 -4.438 -17.834 -9.774 0 0 Z " fill="#FAD801" transform="translate(889,700)"/>
<path d="M0 0 C4.95 0 9.9 0 15 0 C15.33 23.76 15.66 47.52 16 72 C18.31 69.36 20.62 66.72 23 64 C31.104 57.726 39.17 58.13 49 59 C55.714 60.217 61.284 64.243 65.254 69.734 C68.749 75.563 70.253 80.891 70.227 87.648 C70.227 88.949 70.227 90.25 70.227 91.59 C70.216 92.995 70.206 94.4 70.195 95.805 C70.192 97.253 70.189 98.702 70.187 100.151 C70.179 103.949 70.16 107.746 70.137 111.544 C70.117 115.425 70.108 119.306 70.098 123.188 C70.076 130.792 70.041 138.396 70 146 C65.05 146 60.1 146 55 146 C54.985 144.219 54.971 142.438 54.956 140.603 C54.904 134.7 54.839 128.797 54.764 122.894 C54.72 119.317 54.68 115.74 54.654 112.163 C54.627 108.707 54.587 105.251 54.537 101.795 C54.512 99.844 54.502 97.892 54.492 95.941 C54.366 88.291 54.076 82.653 49 76.625 C44.425 72.908 38.449 73.456 32.816 73.602 C27.392 74.168 23.524 75.785 20 80 C15.647 87.225 15.399 94.079 15.391 102.348 C15.374 103.6 15.358 104.853 15.341 106.143 C15.3 109.442 15.277 112.741 15.262 116.041 C15.242 119.42 15.2 122.799 15.16 126.178 C15.086 132.785 15.037 139.392 15 146 C10.05 146 5.1 146 0 146 C0 97.82 0 49.64 0 0 Z " fill="#F9D701" transform="translate(970,637)"/>
<path d="M0 0 C0.915 0.652 1.83 1.305 2.773 1.977 C4.318 3.073 4.318 3.073 5.895 4.191 C6.98 4.993 8.065 5.797 9.148 6.602 C9.699 7.003 10.25 7.404 10.817 7.817 C25.178 18.303 37.479 29.814 42.148 47.602 C42.921 54.22 40.957 58.858 37.336 64.352 C33.38 68.421 29.743 69.787 24.148 70.039 C19.431 69.876 16.687 68.882 13.148 65.602 C10.219 61.207 9.598 57.833 10.148 52.602 C11.981 46.696 14.353 44.173 19.148 40.602 C20.138 39.612 20.138 39.612 21.148 38.602 C14.731 29.34 7.185 22.09 -3.852 18.602 C-8.424 19.602 -11.969 22.711 -15.602 25.539 C-16.485 26.203 -16.485 26.203 -17.387 26.881 C-20.949 29.608 -20.949 29.608 -22.852 33.602 C-22.072 34.273 -22.072 34.273 -21.277 34.957 C-12.567 42.508 -4.456 49.866 0.148 60.602 C0.561 61.55 0.973 62.499 1.398 63.477 C3.108 70.6 2.927 77.178 -0.852 83.602 C-4.278 87.21 -8.219 90.228 -13.219 90.938 C-18.927 91.026 -22.476 90.657 -26.852 86.602 C-29.454 82.784 -30.467 79.346 -30.262 74.684 C-29.141 68.995 -25.639 64.921 -21.039 61.602 C-19.987 60.942 -18.935 60.282 -17.852 59.602 C-24.32 48.797 -32.137 43.155 -42.948 37.065 C-43.665 36.659 -44.382 36.254 -45.121 35.836 C-46.089 35.298 -46.089 35.298 -47.077 34.749 C-48.968 33.526 -50.411 32.334 -51.852 30.602 C-51.516 24.744 -47.953 21.434 -43.852 17.602 C-34.956 10.485 -25.158 5.356 -14.852 0.602 C-14.016 0.198 -13.181 -0.205 -12.32 -0.621 C-7.835 -2.033 -4.245 -2.082 0 0 Z " fill="#FBD801" transform="translate(1682.8515625,544.3984375)"/>
<path d="M0 0 C4.95 0 9.9 0 15 0 C15.009 1.806 15.019 3.612 15.028 5.473 C15.064 11.464 15.118 17.455 15.184 23.446 C15.223 27.075 15.256 30.705 15.271 34.334 C15.286 37.843 15.321 41.35 15.368 44.858 C15.39 46.836 15.392 48.815 15.394 50.793 C15.51 57.972 16.018 62.946 20 69 C24.886 72.989 28.963 73.641 35.219 73.383 C41 72.587 45.947 70.527 49.938 66.188 C54.653 58.9 54.332 51.511 54.414 43.066 C54.433 41.833 54.453 40.6 54.473 39.33 C54.532 35.407 54.579 31.485 54.625 27.562 C54.662 24.896 54.702 22.23 54.742 19.564 C54.838 13.043 54.922 6.522 55 0 C59.95 0 64.9 0 70 0 C70 28.38 70 56.76 70 86 C65.05 86 60.1 86 55 86 C54.67 82.04 54.34 78.08 54 74 C53.257 75.196 52.515 76.393 51.75 77.625 C46.875 84.026 40.366 87.33 32.461 88.543 C23.031 88.923 16.426 86.639 9.188 80.688 C0.721 70.285 -0.299 61.726 -0.195 48.535 C-0.192 47.133 -0.189 45.73 -0.187 44.328 C-0.179 40.657 -0.16 36.986 -0.137 33.315 C-0.117 29.561 -0.108 25.807 -0.098 22.053 C-0.076 14.702 -0.041 7.351 0 0 Z " fill="#F9D701" transform="translate(1376,697)"/>
<path d="M0 0 C5.28 0 10.56 0 16 0 C16 28.38 16 56.76 16 86 C11.05 86 6.1 86 1 86 C0.67 82.04 0.34 78.08 0 74 C-0.784 75.217 -1.568 76.434 -2.375 77.688 C-6.671 83.457 -12.983 86.629 -20 88 C-29.271 89.103 -36.31 87.34 -44 82 C-49.813 76.537 -53.522 68.565 -54.348 60.677 C-54.461 56.861 -54.451 53.058 -54.391 49.242 C-54.383 47.844 -54.377 46.446 -54.373 45.048 C-54.358 41.401 -54.319 37.755 -54.275 34.109 C-54.233 30.375 -54.215 26.641 -54.195 22.906 C-54.153 15.604 -54.082 8.302 -54 1 C-49.38 1 -44.76 1 -40 1 C-39.985 2.649 -39.971 4.299 -39.956 5.998 C-39.898 12.143 -39.82 18.287 -39.738 24.431 C-39.703 27.086 -39.676 29.74 -39.654 32.395 C-39.62 36.221 -39.568 40.046 -39.512 43.871 C-39.505 45.05 -39.499 46.228 -39.492 47.442 C-39.351 55.465 -38.826 62.594 -33.562 68.938 C-27.687 73.667 -22.385 73.767 -15 73 C-9.636 71.4 -6.024 68.769 -3 64 C-1.211 60.218 -0.735 57.187 -0.681 53.016 C-0.661 51.836 -0.641 50.655 -0.621 49.438 C-0.609 48.173 -0.598 46.909 -0.586 45.605 C-0.567 44.303 -0.547 43 -0.527 41.659 C-0.476 38.208 -0.436 34.757 -0.399 31.307 C-0.359 27.78 -0.308 24.254 -0.258 20.729 C-0.161 13.819 -0.078 6.91 0 0 Z " fill="#F8D601" transform="translate(1592,697)"/>
<path d="M0 0 C5.28 0 10.56 0 16 0 C16 9.9 16 19.8 16 30 C20.62 30 25.24 30 30 30 C30 34.62 30 39.24 30 44 C25.05 44 20.1 44 15 44 C15 67.76 15 91.52 15 116 C10.38 116 5.76 116 1 116 C1 92.24 1 68.48 1 44 C-3.62 44 -8.24 44 -13 44 C-13 39.38 -13 34.76 -13 30 C-8.71 30 -4.42 30 0 30 C0 20.1 0 10.2 0 0 Z " fill="#F9D701" transform="translate(926,667)"/>
<path d="M0 0 C2.184 1.098 2.184 1.098 5.309 3.098 C4.675 6.596 3.257 8.939 1.246 11.848 C0.698 12.647 0.15 13.446 -0.414 14.27 C-0.836 14.873 -1.257 15.476 -1.691 16.098 C-2.434 15.768 -3.176 15.438 -3.941 15.098 C-10.159 13.44 -16.855 12.709 -22.754 15.598 C-28.482 22.989 -28.158 31.039 -28.203 40.004 C-28.22 41.338 -28.238 42.671 -28.258 44.005 C-28.305 47.49 -28.335 50.975 -28.361 54.461 C-28.391 58.027 -28.437 61.594 -28.482 65.16 C-28.568 72.139 -28.634 79.118 -28.691 86.098 C-33.641 86.098 -38.591 86.098 -43.691 86.098 C-43.691 57.718 -43.691 29.338 -43.691 0.098 C-38.741 0.098 -33.791 0.098 -28.691 0.098 C-28.361 3.068 -28.031 6.038 -27.691 9.098 C-26.805 8.005 -25.918 6.911 -25.004 5.785 C-18.682 -2.007 -9.379 -3.144 0 0 Z " fill="#F9D601" transform="translate(1207.69140625,696.90234375)"/>
<path d="M0 0 C2.184 1.102 2.184 1.102 5.371 3.102 C5.031 8.544 1.668 12.038 -1.629 16.102 C-2.371 15.772 -3.114 15.442 -3.879 15.102 C-10.152 13.429 -16.908 12.632 -22.754 15.789 C-26.255 20.108 -26.882 23.976 -26.948 29.452 C-26.968 30.713 -26.987 31.974 -27.008 33.273 C-27.02 34.639 -27.032 36.005 -27.043 37.371 C-27.062 38.776 -27.081 40.182 -27.102 41.587 C-27.153 45.274 -27.193 48.962 -27.23 52.649 C-27.27 56.417 -27.321 60.184 -27.371 63.951 C-27.468 71.335 -27.551 78.718 -27.629 86.102 C-32.579 86.102 -37.529 86.102 -42.629 86.102 C-42.629 57.722 -42.629 29.342 -42.629 0.102 C-37.679 0.102 -32.729 0.102 -27.629 0.102 C-27.299 2.412 -26.969 4.722 -26.629 7.102 C-26.17 6.692 -25.711 6.282 -25.238 5.859 C-24.625 5.321 -24.011 4.782 -23.379 4.227 C-22.776 3.693 -22.172 3.159 -21.551 2.609 C-15.459 -2.17 -7.259 -2.481 0 0 Z " fill="#F9D701" transform="translate(1516.62890625,696.8984375)"/>
<path d="M0 0 C2.56 1.37 4.601 2.638 6.875 4.375 C7.48 4.823 8.085 5.272 8.708 5.733 C16.29 11.517 24.91 18.923 26.434 28.816 C26.444 36.26 26.444 36.26 24.125 40.125 C20.845 43.019 18.445 43.408 14.043 43.344 C12 43 12 43 9 40.875 C6.635 37.475 6.324 36.054 7 32 C8.668 28.506 9.74 27.173 13 25 C11.074 18.975 7.361 16.926 2 14 C-0.918 12.429 -0.918 12.429 -4 13 C-7.239 15.074 -10.131 17.444 -13 20 C-12.299 20.681 -11.598 21.361 -10.875 22.062 C2.073 35.12 2.073 35.12 2.438 44.688 C2.247 48.503 1.527 51.022 -1 54 C-4.033 56.359 -7.366 56.43 -11.094 56.305 C-13 56 -13 56 -15.5 54.5 C-17.596 51.007 -17.89 47.904 -17 44 C-15.569 41.496 -14.13 40.028 -12 38 C-11.34 38 -10.68 38 -10 38 C-13.147 30.656 -18.262 27.928 -25 24 C-26.237 23.199 -27.468 22.389 -28.688 21.562 C-29.451 21.047 -30.214 20.531 -31 20 C-30.319 14.875 -28.608 13.11 -24.715 9.914 C-21.396 7.574 -17.989 5.527 -14.438 3.562 C-13.813 3.208 -13.188 2.854 -12.544 2.489 C-8.175 0.176 -4.904 -0.702 0 0 Z " fill="#F9D701" transform="translate(1625,634)"/>
<path d="M0 0 C1.98 0 3.96 0 6 0 C6.33 6.27 6.66 12.54 7 19 C8.32 18.01 9.64 17.02 11 16 C16.434 15.16 21.436 15.33 26.5 17.5 C31.601 22.601 33.247 27.147 33.562 34.375 C33.346 40.801 31.87 45.826 28 51 C23.823 54.302 19.589 54.504 14.414 54.371 C10.76 53.809 8.802 52.359 6 50 C5.34 51.32 4.68 52.64 4 54 C2.68 54 1.36 54 0 54 C0 36.18 0 18.36 0 0 Z " fill="#F4D302" transform="translate(1451,825)"/>
<path d="M0 0 C1.103 -0.008 2.207 -0.015 3.344 -0.023 C8.121 0.58 11.266 2.654 14.25 6.375 C18.579 12.147 18.093 18.411 17.5 25.375 C15.935 30.801 13.247 34.252 8.5 37.375 C4.309 39.47 -0.936 38.788 -5.5 38.375 C-10.087 36.373 -13.093 33.282 -15.578 28.98 C-17.82 22.643 -17.834 15.057 -15.543 8.734 C-11.834 2.377 -7.398 -0.052 0 0 Z " fill="#2F2C3B" transform="translate(759.5,840.625)"/>
<path d="M0 0 C1.338 0.003 1.338 0.003 2.702 0.006 C17.228 0.228 17.228 0.228 21.312 4.312 C22.113 11.046 21.521 16.85 17.312 22.312 C10.575 28.642 4.501 30.743 -4.676 30.562 C-10.2 30.104 -14.197 28.879 -18.125 24.75 C-21.337 19.739 -21.545 15.188 -20.688 9.312 C-18.72 5.576 -16.264 3.185 -12.586 1.148 C-8.384 -0.063 -4.352 -0.026 0 0 Z " fill="#2D2A3C" transform="translate(863.6875,741.6875)"/>
<path d="M0 0 C5.311 5.311 6.812 9.269 6.812 16.812 C-9.688 16.812 -26.188 16.812 -43.188 16.812 C-42.04 9.93 -40.422 4.58 -34.996 -0.062 C-24.041 -7.57 -10.92 -7.494 0 0 Z " fill="#2C2A3C" transform="translate(1120.1875,714.1875)"/>
<path d="M0 0 C1.794 -0.043 1.794 -0.043 3.625 -0.086 C7.635 0.462 9.188 1.513 12 4.375 C14.362 7.956 14.231 11.108 14.195 15.328 C14.192 15.988 14.19 16.649 14.187 17.329 C14.176 19.428 14.15 21.526 14.125 23.625 C14.115 25.052 14.106 26.479 14.098 27.906 C14.076 31.396 14.041 34.885 14 38.375 C12.35 38.375 10.7 38.375 9 38.375 C9 36.395 9 34.415 9 32.375 C8.34 32.375 7.68 32.375 7 32.375 C6.66 33.303 6.66 33.303 6.312 34.25 C4.498 37.188 3.361 37.535 0 38.375 C-4.986 38.916 -8.704 39.168 -13.062 36.5 C-16.304 32.944 -16.352 30.296 -16.27 25.629 C-15.849 22.108 -14.68 20.653 -12 18.375 C-5.378 14.946 0.646 15.044 8 15.375 C7.714 10.548 7.714 10.548 5.438 6.438 C0.688 4.367 -3.683 4.999 -8.5 6.375 C-9.325 6.705 -10.15 7.035 -11 7.375 C-11.33 5.725 -11.66 4.075 -12 2.375 C-7.914 0.44 -4.505 0.049 0 0 Z " fill="#F0CF04" transform="translate(1536,840.625)"/>
<path d="M0 0 C1.205 -0.017 2.411 -0.034 3.652 -0.051 C7.325 0.34 9.15 1.088 12.062 3.312 C14.546 7.038 14.294 8.943 14.258 13.387 C14.255 14.071 14.252 14.754 14.249 15.459 C14.238 17.639 14.213 19.82 14.188 22 C14.177 23.48 14.168 24.96 14.16 26.439 C14.138 30.064 14.104 33.688 14.062 37.312 C12.743 37.312 11.422 37.312 10.062 37.312 C9.402 35.992 8.743 34.673 8.062 33.312 C7.299 34.138 6.536 34.962 5.75 35.812 C1.98 38.947 -1.532 39.021 -6.305 38.812 C-10.427 38.03 -12.146 36.398 -14.938 33.312 C-16.512 30.163 -16.285 27.792 -15.938 24.312 C-13.144 19.774 -10.404 17.432 -5.34 15.77 C-0.576 14.863 4.238 15.095 9.062 15.312 C8.794 14.034 8.526 12.755 8.25 11.438 C8.099 10.718 7.948 9.999 7.793 9.258 C7.139 6.942 7.139 6.942 4.062 5.312 C-1.186 4.968 -4.994 5.335 -9.938 7.312 C-10.267 5.663 -10.598 4.013 -10.938 2.312 C-7.321 0.049 -4.212 0.013 0 0 Z " fill="#F6D402" transform="translate(1157.9375,840.6875)"/>
<path d="M0 0 C2.856 2.448 4.278 3.732 5.625 7.25 C5.625 10.88 5.625 14.51 5.625 18.25 C-2.625 18.25 -10.875 18.25 -19.375 18.25 C-17.269 26.803 -17.269 26.803 -13.375 30.25 C-10.608 30.652 -10.608 30.652 -7.562 30.5 C-5.967 30.461 -5.967 30.461 -4.34 30.422 C-1.292 30.245 1.643 29.913 4.625 29.25 C4.625 30.9 4.625 32.55 4.625 34.25 C-1.502 37.146 -7.735 36.859 -14.375 36.25 C-19.074 34.272 -21.928 31.09 -24.461 26.727 C-26.684 20.703 -26.463 13.26 -24.188 7.25 C-21.734 3.19 -19.183 0.355 -15.125 -2.125 C-9.642 -3.371 -4.961 -2.572 0 0 Z " fill="#F2D103" transform="translate(1232.375,842.75)"/>
<path d="M0 0 C4.997 2.516 8.208 5.624 10 11 C10 13.97 10 16.94 10 20 C1.42 20 -7.16 20 -16 20 C-13.895 28.236 -13.895 28.236 -11.219 31.047 C-8.207 32.341 -5.769 32.325 -2.5 32.25 C-1.376 32.235 -0.252 32.219 0.906 32.203 C3.44 32.037 5.584 31.734 8 31 C8 32.65 8 34.3 8 36 C1.64 38.938 -5.8 39.42 -12.484 37.16 C-16.716 34.798 -19.483 31.84 -21.375 27.371 C-23.024 21.114 -23.054 14.518 -20.375 8.562 C-15.255 0.106 -9.68 -1.563 0 0 Z " fill="#F2D103" transform="translate(1606,841)"/>
<path d="M0 0 C4.455 2.11 7.226 4.368 9 9 C9 12.63 9 16.26 9 20 C0.75 20 -7.5 20 -16 20 C-14.64 25.541 -14.64 25.541 -13 31 C-6.542 33.153 1.416 32.463 8 31 C8 32.65 8 34.3 8 36 C1.883 38.891 -4.369 38.631 -11 38 C-15.518 35.897 -18.22 33.118 -21 29 C-23.084 22.789 -23.288 14.544 -21.059 8.41 C-16.049 -0.023 -9.321 -1.137 0 0 Z " fill="#F2D103" transform="translate(1126,841)"/>
<path d="M0 0 C4.455 2.11 7.226 4.368 9 9 C9 12.63 9 16.26 9 20 C0.75 20 -7.5 20 -16 20 C-14.64 25.541 -14.64 25.541 -13 31 C-6.542 33.153 1.416 32.463 8 31 C8 32.65 8 34.3 8 36 C1.883 38.891 -4.369 38.631 -11 38 C-15.518 35.897 -18.22 33.118 -21 29 C-23.084 22.789 -23.288 14.544 -21.059 8.41 C-16.049 -0.023 -9.321 -1.137 0 0 Z " fill="#F2D103" transform="translate(893,841)"/>
<path d="M0 0 C4.455 2.11 7.226 4.368 9 9 C9 12.63 9 16.26 9 20 C0.75 20 -7.5 20 -16 20 C-14.64 25.541 -14.64 25.541 -13 31 C-6.542 33.153 1.416 32.463 8 31 C8 32.65 8 34.3 8 36 C1.883 38.891 -4.369 38.631 -11 38 C-15.518 35.897 -18.22 33.118 -21 29 C-23.08 22.665 -22.907 14.796 -20.812 8.5 C-16.181 -0.443 -9.208 -0.867 0 0 Z " fill="#F3D203" transform="translate(1432,841)"/>
<path d="M0 0 C4.455 2.11 7.226 4.368 9 9 C9 12.63 9 16.26 9 20 C0.75 20 -7.5 20 -16 20 C-13.894 28.553 -13.894 28.553 -10 32 C-7.233 32.402 -7.233 32.402 -4.188 32.25 C-2.592 32.211 -2.592 32.211 -0.965 32.172 C2.083 31.995 5.018 31.663 8 31 C8 32.65 8 34.3 8 36 C1.88 38.892 -4.366 38.624 -11 38 C-15.999 35.759 -18.296 32.708 -21 28 C-22.935 22.196 -23.063 14.822 -20.812 9.062 C-15.447 -0.003 -9.948 -0.936 0 0 Z " fill="#F3D203" transform="translate(1375,841)"/>
<path d="M0 0 C4.133 0.472 7.358 2.052 11 4 C10.366 8.686 8.435 12.604 6.359 16.793 C5.813 17.912 5.813 17.912 5.256 19.054 C4.093 21.434 2.922 23.811 1.75 26.188 C0.977 27.766 0.205 29.345 -0.566 30.924 C-4.339 38.635 -8.145 46.329 -12 54 C-15.63 52.35 -19.26 50.7 -23 49 C-22.18 44.9 -21.436 42.522 -19.594 38.93 C-19.101 37.959 -18.608 36.989 -18.101 35.989 C-17.573 34.961 -17.044 33.934 -16.5 32.875 C-12.087 24.187 -7.789 15.463 -3.68 6.626 C-1.097 1.097 -1.097 1.097 0 0 Z " fill="#302D3B" transform="translate(468,685)"/>
<path d="M0 0 C3.96 0 7.92 0 12 0 C12 17.82 12 35.64 12 54 C8.04 54 4.08 54 0 54 C0 36.18 0 18.36 0 0 Z " fill="#2B293D" transform="translate(329,649)"/>
<path d="M0 0 C1.943 -0.021 1.943 -0.021 3.926 -0.043 C7.554 0.179 10.321 0.867 13.688 2.188 C13.027 4.168 12.368 6.148 11.688 8.188 C10.924 7.857 10.161 7.528 9.375 7.188 C3.693 5.647 -2.081 4.953 -7.695 7.098 C-12.285 9.731 -14.343 12.171 -16.312 17.188 C-16.765 19.991 -16.837 22.726 -16.812 25.562 C-16.808 26.315 -16.804 27.068 -16.8 27.844 C-16.645 32.885 -15.937 36.589 -12.895 40.742 C-7.772 45.422 -3.652 45.58 3 45.375 C3.836 45.361 4.672 45.348 5.533 45.334 C7.585 45.299 9.636 45.245 11.688 45.188 C11.358 46.837 11.027 48.487 10.688 50.188 C3.816 52.322 -6.173 52.613 -12.875 49.75 C-18.397 46.345 -21.897 40.378 -23.688 34.25 C-25.523 24.731 -24.172 17.395 -19.562 9 C-14.099 2.171 -8.671 0.043 0 0 Z " fill="#F3D203" transform="translate(1055.3125,827.8125)"/>
<path d="M0 0 C-0.33 1.65 -0.66 3.3 -1 5 C-1.784 4.835 -2.568 4.67 -3.375 4.5 C-10.886 3.464 -17.307 3.118 -24 7 C-29.79 12.947 -30.427 18.742 -30.336 26.758 C-29.865 31.302 -28.345 34.116 -26 38 C-26 38.66 -26 39.32 -26 40 C-25.216 40.309 -24.432 40.619 -23.625 40.938 C-21 42 -21 42 -19 43 C-12.967 43.307 -6.918 43.315 -1 42 C-1 43.98 -1 45.96 -1 48 C-8.714 49.827 -19.717 51.053 -26.75 46.812 C-32.079 42.62 -35.571 37.694 -37 31 C-37.955 21.701 -37.728 13.681 -32 6 C-23.473 -3.303 -11.594 -4.314 0 0 Z " fill="#F4D303" transform="translate(1346,830)"/>
<path d="M0 0 C1.103 -0.008 2.207 -0.015 3.344 -0.023 C8.121 0.58 11.266 2.654 14.25 6.375 C18.579 12.147 18.093 18.411 17.5 25.375 C15.935 30.801 13.247 34.252 8.5 37.375 C4.309 39.47 -0.936 38.788 -5.5 38.375 C-10.087 36.373 -13.093 33.282 -15.578 28.98 C-17.82 22.643 -17.834 15.057 -15.543 8.734 C-11.834 2.377 -7.398 -0.052 0 0 Z M-8.5 8.375 C-11.757 13.455 -10.975 19.581 -10.5 25.375 C-8.982 29.64 -8.251 30.874 -4.5 33.375 C-1.109 33.921 2.109 33.921 5.5 33.375 C8.324 31.185 9.915 29.545 11.5 26.375 C12.468 17.164 12.468 17.164 9.75 8.625 C6.408 5.283 4.785 4.515 0.062 4 C-4.128 4.441 -5.594 5.386 -8.5 8.375 Z " fill="#F5D302" transform="translate(759.5,840.625)"/>
<path d="M0 0 C-0.33 1.65 -0.66 3.3 -1 5 C-1.763 4.835 -2.526 4.67 -3.312 4.5 C-12.851 3.145 -12.851 3.145 -21.938 5.625 C-26.79 9.388 -29.05 12.997 -30 19 C-30.653 26.163 -30.353 32.065 -26 38 C-21.43 42.244 -18.851 43.139 -12.688 43.125 C-11.557 43.128 -10.426 43.13 -9.262 43.133 C-6.378 43.015 -3.801 42.662 -1 42 C-1 43.65 -1 45.3 -1 47 C-7.741 50.222 -16.334 50.131 -23.547 48.383 C-29.752 45.665 -33.661 40.328 -36.141 34.164 C-38.364 25.98 -37.979 16.917 -34.402 9.191 C-26.662 -2.904 -12.85 -4.782 0 0 Z " fill="#F5D402" transform="translate(736,830)"/>
<path d="M0 0 C3.565 2.17 5.466 4.156 7 8 C7.748 14.888 7.539 20.971 4 27 C-0.23 29.82 -4.032 29.668 -9 29 C-11.549 27.259 -12.597 26.197 -13.574 23.293 C-14.149 20.199 -14.21 17.209 -14.25 14.062 C-14.276 12.857 -14.302 11.652 -14.328 10.41 C-13.973 6.718 -13.237 4.921 -11 2 C-7.308 -0.461 -4.286 -0.687 0 0 Z " fill="#2F2C3B" transform="translate(1471,845)"/>
<path d="M0 0 C1.65 0 3.3 0 5 0 C5.33 1.32 5.66 2.64 6 4 C6.742 3.34 7.485 2.68 8.25 2 C13.004 -1.158 18.537 -0.889 24 0 C27.223 1.645 29.359 3.718 31 7 C31.086 9.324 31.107 11.651 31.098 13.977 C31.096 14.662 31.095 15.347 31.093 16.053 C31.088 18.244 31.075 20.434 31.062 22.625 C31.057 24.109 31.053 25.594 31.049 27.078 C31.038 30.719 31.021 34.359 31 38 C29.02 38 27.04 38 25 38 C24.991 37.107 24.981 36.214 24.972 35.294 C24.928 31.978 24.866 28.663 24.792 25.347 C24.764 23.913 24.743 22.478 24.729 21.044 C24.708 18.98 24.661 16.918 24.609 14.855 C24.588 13.614 24.567 12.373 24.546 11.094 C24.285 7.946 24.285 7.946 22.181 6.091 C18.409 4.204 14.765 4.559 10.75 5.562 C7.289 8.406 6.193 12.428 5.666 16.728 C5.483 19.799 5.379 22.862 5.312 25.938 C5.278 27.003 5.244 28.068 5.209 29.166 C5.127 31.777 5.058 34.388 5 37 C3.35 37 1.7 37 0 37 C0 24.79 0 12.58 0 0 Z " fill="#F5D302" transform="translate(830,841)"/>
<path d="M0 0 C1.65 0 3.3 0 5 0 C5.33 1.32 5.66 2.64 6 4 C6.742 3.34 7.485 2.68 8.25 2 C12.924 -1.153 18.597 -0.647 24 0 C26.818 0.919 27.814 1.751 29.595 4.14 C31.329 7.669 31.343 10.129 31.293 14.051 C31.289 14.71 31.284 15.368 31.28 16.047 C31.263 18.136 31.226 20.224 31.188 22.312 C31.172 23.735 31.159 25.158 31.146 26.58 C31.114 30.054 31.062 33.527 31 37 C29.35 37 27.7 37 26 37 C25.996 36.208 25.992 35.417 25.988 34.601 C25.955 31.004 25.884 27.409 25.812 23.812 C25.807 22.567 25.801 21.321 25.795 20.037 C25.921 12.793 25.921 12.793 22.672 6.664 C19.182 4.49 17.045 4.485 13 5 C10.416 5.838 9.383 6.403 7.92 8.685 C6.748 11.634 6.676 14.125 6.586 17.297 C6.528 19.105 6.528 19.105 6.469 20.949 C6.422 22.831 6.422 22.831 6.375 24.75 C6.317 26.655 6.317 26.655 6.258 28.598 C6.164 31.732 6.078 34.866 6 38 C4.02 38 2.04 38 0 38 C0 25.46 0 12.92 0 0 Z " fill="#F6D502" transform="translate(787,841)"/>
<path d="M0 0 C5.75 1.875 5.75 1.875 8 3 C6.337 8.639 3.804 13.739 1.211 18.992 C0.748 19.938 0.284 20.884 -0.193 21.859 C-1.667 24.866 -3.146 27.87 -4.625 30.875 C-5.628 32.919 -6.631 34.963 -7.633 37.008 C-10.085 42.007 -12.541 47.004 -15 52 C-20.75 51.125 -20.75 51.125 -23 50 C-22.402 46.28 -21.346 43.347 -19.629 40 C-19.141 39.04 -18.654 38.079 -18.151 37.09 C-17.627 36.07 -17.103 35.051 -16.562 34 C-15.474 31.855 -14.386 29.709 -13.301 27.562 C-12.751 26.476 -12.202 25.389 -11.635 24.27 C-9.106 19.212 -6.67 14.111 -4.25 9 C-3.605 7.639 -3.605 7.639 -2.948 6.25 C-1.963 4.168 -0.98 2.084 0 0 Z " fill="#332F3A" transform="translate(449,675)"/>
<path d="M0 0 C2.64 0 5.28 0 8 0 C8 17.82 8 35.64 8 54 C5.36 54 2.72 54 0 54 C0 36.18 0 18.36 0 0 Z " fill="#2B293D" transform="translate(308,649)"/>
<path d="M0 0 C0.99 0 1.98 0 3 0 C3 2.97 3 5.94 3 9 C6.63 9 10.26 9 14 9 C14 10.65 14 12.3 14 14 C10.37 14 6.74 14 3 14 C3.14 18.125 3.287 22.25 3.438 26.375 C3.477 27.551 3.516 28.726 3.557 29.938 C3.619 31.62 3.619 31.62 3.684 33.336 C3.72 34.373 3.757 35.41 3.795 36.478 C3.842 38.994 3.842 38.994 5 41 C7.126 41.467 7.126 41.467 9.562 41.625 C10.389 41.7 11.215 41.775 12.066 41.852 C12.704 41.901 13.343 41.95 14 42 C14 43.65 14 45.3 14 47 C4.033 47.785 4.033 47.785 -0.125 44.625 C-2.895 40.747 -3.121 38.859 -3.098 34.117 C-3.094 32.951 -3.091 31.784 -3.088 30.582 C-3.08 29.359 -3.071 28.135 -3.062 26.875 C-3.058 25.644 -3.053 24.413 -3.049 23.145 C-3.037 20.096 -3.021 17.048 -3 14 C-4.65 14 -6.3 14 -8 14 C-8 12.68 -8 11.36 -8 10 C-6.855 9.753 -6.855 9.753 -5.688 9.5 C-1.755 7.305 -1.195 4.178 0 0 Z " fill="#EFCF04" transform="translate(1187,832)"/>
<path d="M0 0 C1.32 0 2.64 0 4 0 C4 2.97 4 5.94 4 9 C7.63 9 11.26 9 15 9 C15 10.65 15 12.3 15 14 C11.37 14 7.74 14 4 14 C4.138 18.313 4.287 22.625 4.438 26.938 C4.477 28.169 4.516 29.401 4.557 30.67 C4.619 32.425 4.619 32.425 4.684 34.215 C4.72 35.299 4.757 36.383 4.795 37.5 C4.724 39.939 4.724 39.939 6 41 C7.515 41.232 9.038 41.412 10.562 41.562 C11.389 41.646 12.215 41.73 13.066 41.816 C14.024 41.907 14.024 41.907 15 42 C15 43.65 15 45.3 15 47 C5.078 47.626 5.078 47.626 0.875 45.188 C-2.259 41.531 -2.119 38.443 -2.098 33.801 C-2.093 31.988 -2.093 31.988 -2.088 30.139 C-2.08 28.876 -2.071 27.613 -2.062 26.312 C-2.058 25.038 -2.053 23.764 -2.049 22.451 C-2.037 19.301 -2.021 16.15 -2 13 C-3.65 13 -5.3 13 -7 13 C-7 12.01 -7 11.02 -7 10 C-5.35 9.67 -3.7 9.34 -2 9 C-1.34 6.03 -0.68 3.06 0 0 Z " fill="#EFCE04" transform="translate(948,832)"/>
<path d="M0 0 C-0.33 1.65 -0.66 3.3 -1 5 C-2.446 4.93 -2.446 4.93 -3.922 4.859 C-5.185 4.823 -6.448 4.787 -7.75 4.75 C-9.003 4.704 -10.256 4.657 -11.547 4.609 C-15.05 4.698 -15.05 4.698 -17.391 6.891 C-21.12 11.779 -20.303 17.063 -20 23 C-19.606 25.65 -19.054 27.504 -18 30 C-12.356 31.881 -5.731 31.528 0 30 C0.188 32.375 0.188 32.375 0 35 C-4.887 38.258 -10.288 37.563 -16 37 C-20.972 34.732 -23.302 31.696 -26 27 C-28.032 20.905 -27.824 13.667 -25.938 7.562 C-25.298 6.717 -24.659 5.871 -24 5 C-23.582 4.444 -23.165 3.889 -22.734 3.316 C-17.01 -2.943 -7.637 -2.546 0 0 Z " fill="#F3D103" transform="translate(937,842)"/>
<path d="M0 0 C0.99 0 1.98 0 3 0 C3 2.64 3 5.28 3 8 C6.63 8 10.26 8 14 8 C14 9.32 14 10.64 14 12 C10.37 12 6.74 12 3 12 C3.114 16.105 3.24 20.208 3.375 24.312 C3.406 25.48 3.437 26.647 3.469 27.85 C3.507 28.968 3.546 30.086 3.586 31.238 C3.617 32.27 3.649 33.302 3.681 34.365 C3.827 37.228 3.827 37.228 6 40 C8.195 40.58 8.195 40.58 10.625 40.688 C11.442 40.753 12.26 40.819 13.102 40.887 C13.728 40.924 14.355 40.961 15 41 C15 42.65 15 44.3 15 46 C4.225 46.565 4.225 46.565 0 43 C-2.391 39.413 -2.234 37.836 -2.195 33.582 C-2.186 31.702 -2.186 31.702 -2.176 29.783 C-2.159 28.473 -2.142 27.163 -2.125 25.812 C-2.115 24.477 -2.106 23.142 -2.098 21.807 C-2.074 18.538 -2.041 15.269 -2 12 C-3.65 12 -5.3 12 -7 12 C-7 11.01 -7 10.02 -7 9 C-5.35 8.67 -3.7 8.34 -2 8 C-1.783 6.577 -1.783 6.577 -1.562 5.125 C-1 2 -1 2 0 0 Z " fill="#F8D601" transform="translate(1564,833)"/>
<path d="M0 0 C1.98 0 3.96 0 6 0 C6 17.82 6 35.64 6 54 C4.02 54 2.04 54 0 54 C0 36.18 0 18.36 0 0 Z " fill="#F2D103" transform="translate(1394,825)"/>
<path d="M0 0 C1.65 0 3.3 0 5 0 C5.33 1.98 5.66 3.96 6 6 C6.804 5.196 7.609 4.391 8.438 3.562 C12 0 12 0 14.066 -0.098 C15.302 -0.08 15.302 -0.08 16.562 -0.062 C17.389 -0.053 18.215 -0.044 19.066 -0.035 C19.704 -0.024 20.343 -0.012 21 0 C21 1.65 21 3.3 21 5 C20.112 5.004 20.112 5.004 19.207 5.008 C18.022 5.066 18.022 5.066 16.812 5.125 C16.035 5.148 15.258 5.171 14.457 5.195 C11.572 6.14 9.845 7.441 7.997 9.856 C5.763 14.66 6.213 20.175 6.188 25.375 C6.162 26.588 6.137 27.801 6.111 29.051 C6.053 32.034 6.016 35.016 6 38 C4.02 38 2.04 38 0 38 C0 25.46 0 12.92 0 0 Z " fill="#F3D203" transform="translate(1077,841)"/>
<path d="M0 0 C0.33 0 0.66 0 1 0 C1.33 55.44 1.66 110.88 2 168 C3.98 167.67 5.96 167.34 8 167 C8.66 167.33 9.32 167.66 10 168 C10.125 173.75 10.125 173.75 9 176 C7 176.043 5 176.041 3 176 C2.67 175.67 2.34 175.34 2 175 C1.67 187.21 1.34 199.42 1 212 C0.67 212 0.34 212 0 212 C0 142.04 0 72.08 0 0 Z " fill="#AC9618" transform="translate(404,671)"/>
<path d="M0 0 C1.65 0 3.3 0 5 0 C5 18.15 5 36.3 5 55 C3.35 55 1.7 55 0 55 C0 36.85 0 18.7 0 0 Z " fill="#534B31" transform="translate(320,649)"/>
<path d="M0 0 C1.65 0 3.3 0 5 0 C5 18.15 5 36.3 5 55 C3.35 55 1.7 55 0 55 C0 36.85 0 18.7 0 0 Z " fill="#534B31" transform="translate(299,649)"/>
<path d="M0 0 C1.65 0 3.3 0 5 0 C5.33 1.65 5.66 3.3 6 5 C6.804 4.175 7.609 3.35 8.438 2.5 C11.929 -0.473 14.795 -0.433 19.242 -0.176 C19.822 -0.118 20.402 -0.06 21 0 C21 1.65 21 3.3 21 5 C20.397 5.026 19.793 5.052 19.172 5.078 C14.017 5.404 14.017 5.404 9.562 7.812 C6.755 11.743 5.748 14.564 5.586 19.422 C5.528 20.959 5.528 20.959 5.469 22.527 C5.438 23.591 5.407 24.654 5.375 25.75 C5.317 27.368 5.317 27.368 5.258 29.02 C5.164 31.68 5.078 34.339 5 37 C3.35 37 1.7 37 0 37 C0 24.79 0 12.58 0 0 Z " fill="#FAD701" transform="translate(1494,841)"/>
<path d="M0 0 C2.062 0.438 2.062 0.438 4 1 C2.375 6.457 -0.025 11.396 -2.535 16.484 C-2.974 17.381 -3.413 18.278 -3.865 19.202 C-5.26 22.053 -6.661 24.902 -8.062 27.75 C-9.009 29.681 -9.955 31.612 -10.9 33.543 C-17.156 46.313 -17.156 46.313 -19 50 C-20.32 49.67 -21.64 49.34 -23 49 C-21.74 45.019 -20.286 41.297 -18.461 37.543 C-17.719 36.009 -17.719 36.009 -16.962 34.443 C-16.438 33.369 -15.915 32.294 -15.375 31.188 C-14.292 28.952 -13.21 26.716 -12.129 24.48 C-11.598 23.384 -11.067 22.287 -10.52 21.158 C-8.076 16.081 -5.691 10.977 -3.324 5.864 C-1.106 1.106 -1.106 1.106 0 0 Z " fill="#373339" transform="translate(483,692)"/>
<path d="M0 0 C0.99 0.33 1.98 0.66 3 1 C2.405 4.586 1.439 7.518 -0.152 10.781 C-0.595 11.696 -1.037 12.611 -1.492 13.554 C-1.969 14.526 -2.446 15.498 -2.938 16.5 C-3.935 18.554 -4.933 20.609 -5.93 22.664 C-6.439 23.71 -6.947 24.756 -7.472 25.833 C-8.965 28.928 -10.43 32.035 -11.883 35.148 C-12.334 36.112 -12.785 37.076 -13.25 38.068 C-14.113 39.914 -14.972 41.762 -15.826 43.611 C-16.409 44.852 -16.409 44.852 -17.004 46.117 C-17.342 46.845 -17.681 47.574 -18.03 48.324 C-19 50 -19 50 -21 51 C-21.66 50.67 -22.32 50.34 -23 50 C-22.446 45.607 -21.362 42.255 -19.34 38.324 C-18.525 36.722 -18.525 36.722 -17.694 35.088 C-17.115 33.966 -16.535 32.844 -15.938 31.688 C-14.752 29.36 -13.569 27.032 -12.387 24.703 C-11.808 23.566 -11.23 22.428 -10.634 21.256 C-8.075 16.157 -5.657 10.996 -3.273 5.813 C-1.093 1.093 -1.093 1.093 0 0 Z " fill="#383438" transform="translate(491,695)"/>
<path d="M0 0 C0.994 0.009 1.988 0.018 3.012 0.027 C4.151 0.045 4.151 0.045 5.312 0.062 C5.605 5.029 5.56 8.166 2.312 12.062 C-1.204 14.46 -3.098 15.082 -7.375 14.938 C-10.688 14.062 -10.688 14.062 -12.688 12.938 C-14.371 9.78 -13.585 7.411 -12.688 4.062 C-8.92 0.295 -5.141 -0.06 0 0 Z " fill="#383439" transform="translate(1161.6875,859.9375)"/>
<path d="M0 0 C1.32 0.33 2.64 0.66 4 1 C2.74 4.981 1.286 8.703 -0.539 12.457 C-1.033 13.48 -1.528 14.503 -2.037 15.557 C-2.561 16.631 -3.085 17.706 -3.625 18.812 C-8.127 28.061 -8.127 28.061 -12.465 37.387 C-12.824 38.175 -13.184 38.964 -13.554 39.776 C-14.211 41.226 -14.861 42.679 -15.5 44.136 C-16.257 45.795 -17.119 47.404 -18 49 C-19.485 49.495 -19.485 49.495 -21 50 C-21.66 49.67 -22.32 49.34 -23 49 C-21.701 45.673 -20.298 42.437 -18.75 39.219 C-18.091 37.846 -18.091 37.846 -17.419 36.446 C-16.951 35.474 -16.483 34.501 -16 33.5 C-15.014 31.447 -14.028 29.393 -13.043 27.34 C-12.541 26.294 -12.038 25.249 -11.521 24.171 C-9.108 19.14 -6.71 14.101 -4.312 9.062 C-3.662 7.695 -3.662 7.695 -2.998 6.301 C-1.999 4.201 -0.999 2.1 0 0 Z " fill="#393538" transform="translate(460,681)"/>
<path d="M0 0 C1.32 0.33 2.64 0.66 4 1 C2.74 4.981 1.286 8.703 -0.539 12.457 C-1.034 13.48 -1.528 14.503 -2.038 15.557 C-2.562 16.631 -3.085 17.706 -3.625 18.812 C-4.706 21.047 -5.787 23.281 -6.867 25.516 C-7.663 27.16 -7.663 27.16 -8.476 28.838 C-10.595 33.233 -12.678 37.645 -14.75 42.062 C-15.085 42.776 -15.419 43.489 -15.764 44.224 C-16.51 45.816 -17.255 47.408 -18 49 C-19.32 49 -20.64 49 -22 49 C-21.389 45.209 -20.278 42.155 -18.594 38.711 C-17.855 37.187 -17.855 37.187 -17.101 35.633 C-16.572 34.558 -16.044 33.483 -15.5 32.375 C-14.411 30.134 -13.322 27.893 -12.234 25.652 C-11.691 24.537 -11.148 23.422 -10.588 22.273 C-8.277 17.509 -6.01 12.725 -3.75 7.938 C-3.368 7.129 -2.986 6.321 -2.592 5.488 C-1.727 3.659 -0.863 1.829 0 0 Z " fill="#383439" transform="translate(441,672)"/>
<path d="M0 0 C1.32 0 2.64 0 4 0 C4 18.15 4 36.3 4 55 C2.68 55 1.36 55 0 55 C0 36.85 0 18.7 0 0 Z " fill="#2C2A3C" transform="translate(354,649)"/>
<path d="M0 0 C1.32 0 2.64 0 4 0 C4 17.82 4 35.64 4 54 C2.68 54 1.36 54 0 54 C0 36.18 0 18.36 0 0 Z " fill="#322F3B" transform="translate(346,649)"/>
<path d="M0 0 C0.892 0.009 1.784 0.018 2.703 0.027 C3.379 0.039 4.054 0.051 4.75 0.062 C5.044 5.06 4.848 8.047 1.75 12.062 C-1.501 14.23 -2.542 14.335 -6.312 14.312 C-7.19 14.318 -8.068 14.323 -8.973 14.328 C-11.25 14.062 -11.25 14.062 -13.25 12.062 C-13.688 8.12 -13.895 5.938 -11.5 2.688 C-7.795 0.012 -4.49 -0.059 0 0 Z " fill="#322F3A" transform="translate(1539.25,859.9375)"/>
<path d="M0 0 C2.438 1.562 2.438 1.562 4 4 C4.597 8.103 4.389 10.268 2.438 13.938 C0 16 0 16 -3.562 16.5 C-7 16 -7 16 -8.875 14.625 C-11.356 11.042 -11.374 8.337 -11 4 C-8.112 -0.505 -5.118 -0.731 0 0 Z " fill="#F6D402" transform="translate(1277,845)"/>
<path d="M0 0 C2.438 1.5 2.438 1.5 4 4 C4.804 8.046 4.638 10.979 2.438 14.5 C-0.91 16.56 -3.14 16.491 -7 16 C-9.309 14.341 -9.924 13.451 -10.398 10.625 C-10.391 9.759 -10.383 8.893 -10.375 8 C-10.383 7.134 -10.39 6.268 -10.398 5.375 C-9.406 -0.543 -5.291 -0.65 0 0 Z " fill="#F9D701" transform="translate(999,845)"/>
<path d="M0 0 C3.38 1.188 3.932 1.898 6 5 C6 6.98 6 8.96 6 11 C-0.27 11 -6.54 11 -13 11 C-11.6 2.602 -8.826 -1.123 0 0 Z " fill="#312E3B" transform="translate(1429,845)"/>
<path d="M0 0 C3.38 1.188 3.932 1.898 6 5 C6 6.98 6 8.96 6 11 C-0.27 11 -6.54 11 -13 11 C-11.6 2.602 -8.826 -1.123 0 0 Z " fill="#312E3B" transform="translate(1123,845)"/>
<path d="M0 0 C3.38 1.188 3.932 1.898 6 5 C6 6.98 6 8.96 6 11 C-0.27 11 -6.54 11 -13 11 C-11.6 2.602 -8.826 -1.123 0 0 Z " fill="#312E3B" transform="translate(890,845)"/>
<path d="M0 0 C3.461 0.865 4.949 2.626 6.938 5.484 C6.938 7.464 6.938 9.444 6.938 11.484 C0.668 11.484 -5.602 11.484 -12.062 11.484 C-10.782 3.8 -8.141 -0.555 0 0 Z " fill="#312E3B" transform="translate(1371.0625,844.515625)"/>
<path d="M0 0 C2.938 2.125 2.938 2.125 5 5 C5 6.98 5 8.96 5 11 C-1.27 11 -7.54 11 -14 11 C-13.012 6.061 -12.264 4.561 -9 1 C-5.861 -0.569 -3.461 -0.352 0 0 Z " fill="#302D3B" transform="translate(1604,845)"/>
<path d="M0 0 C3.38 1.188 3.932 1.898 6 5 C6 6.98 6 8.96 6 11 C-0.27 11 -6.54 11 -13 11 C-11.6 2.602 -8.826 -1.123 0 0 Z " fill="#302D3B" transform="translate(1226,845)"/>
<path d="M0 0 C1.021 0.619 1.021 0.619 2.062 1.25 C-3.4 7.278 -10.199 11.758 -16.938 16.25 C-17.928 15.59 -18.918 14.93 -19.938 14.25 C-17.166 7.834 -7.377 -1.884 0 0 Z " fill="#373339" transform="translate(1672.9375,558.75)"/>
<path d="M0 0 C3.297 0.33 4.623 0.623 7 3 C6.625 6.125 6.625 6.125 6 9 C3.125 9.625 3.125 9.625 0 10 C-2 8 -2 8 -2.25 5 C-2 2 -2 2 0 0 Z " fill="#3A3538" transform="translate(327,812)"/>
<path d="M0 0 C3.297 0.33 4.623 0.623 7 3 C6.625 6.125 6.625 6.125 6 9 C3.125 9.625 3.125 9.625 0 10 C-2 8 -2 8 -2.25 5 C-2 2 -2 2 0 0 Z " fill="#393538" transform="translate(311,812)"/>
<path d="M0 0 C3.297 0.33 4.623 0.623 7 3 C6.625 6.125 6.625 6.125 6 9 C3.125 9.625 3.125 9.625 0 10 C-2 8 -2 8 -2.25 5 C-2 2 -2 2 0 0 Z " fill="#393538" transform="translate(295,812)"/>
<path d="M0 0 C0.763 0.206 1.526 0.413 2.312 0.625 C3.641 6.059 3.641 6.059 2.188 8.562 C0.312 9.625 0.312 9.625 -2.312 9.375 C-4.688 8.625 -4.688 8.625 -5.688 7.625 C-5.938 4.688 -5.938 4.688 -5.688 1.625 C-2.688 -0.375 -2.688 -0.375 0 0 Z " fill="#383439" transform="translate(282.6875,812.375)"/>
<path d="M0 0 C4.556 0.556 4.556 0.556 6 2 C6.188 4.938 6.188 4.938 6 8 C5.34 8.66 4.68 9.32 4 10 C0.703 9.67 -0.623 9.377 -3 7 C-2.67 3.703 -2.377 2.377 0 0 Z " fill="#393438" transform="translate(375,812)"/>
<path d="M0 0 C4.556 0.556 4.556 0.556 6 2 C6.188 4.938 6.188 4.938 6 8 C5.34 8.66 4.68 9.32 4 10 C0.703 9.67 -0.623 9.377 -3 7 C-2.67 3.703 -2.377 2.377 0 0 Z " fill="#3A3538" transform="translate(359,812)"/>
<path d="M0 0 C3.297 0.33 4.623 0.623 7 3 C6.67 6.297 6.377 7.623 4 10 C-0.556 9.444 -0.556 9.444 -2 8 C-2.188 5.062 -2.188 5.062 -2 2 C-1.34 1.34 -0.68 0.68 0 0 Z " fill="#393538" transform="translate(343,812)"/>
<path d="M0 0 C2.5 0.25 2.5 0.25 4.5 2.25 C3.932 7.818 3.932 7.818 2.5 9.25 C-0.5 9.375 -0.5 9.375 -3.5 9.25 C-4.5 8.25 -4.5 8.25 -4.688 5.312 C-4.454 1.497 -3.883 0.388 0 0 Z " fill="#353139" transform="translate(424.5,844.75)"/>
<path d="M0 0 C2.5 0.25 2.5 0.25 4.5 2.25 C4.75 4.75 4.75 4.75 4.5 7.25 C2.5 9.25 2.5 9.25 0 9.5 C-2.5 9.25 -2.5 9.25 -4.5 7.25 C-4.75 4.75 -4.75 4.75 -4.5 2.25 C-2.5 0.25 -2.5 0.25 0 0 Z " fill="#312E3B" transform="translate(438.5,851.75)"/>
<path d="M0 0 C0.125 5.75 0.125 5.75 -1 8 C-2.98 8 -4.96 8 -7 8 C-9.125 3.375 -9.125 3.375 -8 0 C-5.138 -1.431 -3.066 -0.6 0 0 Z " fill="#322F3A" transform="translate(414,839)"/>
<path d="M0 0 C-3.163 3.284 -6.317 6.314 -10 9 C-12.375 8.812 -12.375 8.812 -14 8 C-10.752 3.322 -6.058 -2.019 0 0 Z " fill="#403B36" transform="translate(1621,644)"/>
<path d="M0 0 C0.99 0.33 1.98 0.66 3 1 C-0.434 4.636 -3.797 7.361 -8 10 C-8.66 9.67 -9.32 9.34 -10 9 C-7.136 5.034 -4.297 2.377 0 0 Z " fill="#E9C906" transform="translate(1671,563)"/>
<path d="M0 0 C0.99 0.66 1.98 1.32 3 2 C-4.429 6.429 -4.429 6.429 -8 7 C-5.422 4.352 -3.084 2.056 0 0 Z " fill="#D3B70C" transform="translate(1621,644)"/>
</svg>