<svg version="1.1" id="Layer_1" xmlns="http://www.w3.org/2000/svg" xmlns:xlink="http://www.w3.org/1999/xlink" x="0px" y="0px"
	 width="100%" viewBox="0 0 1482 470" enable-background="new 0 0 1482 470" xml:space="preserve">
<path fill="#2C293D" opacity="1.000000" stroke="none" 
	d="
M975.000000,471.000000 
	C650.041504,471.000000 325.583038,471.000000 1.062290,471.000000 
	C1.062290,314.394928 1.062290,157.789825 1.062290,1.092363 
	C495.000000,1.092363 989.000000,1.092363 1482.967285,1.092363 
	C1482.967285,157.750366 1482.967285,314.375183 1482.967285,471.000000 
	C1313.789673,471.000000 1144.644897,471.000000 975.000000,471.000000 
M1363.085938,137.559341 
	C1363.646606,136.838028 1364.207397,136.116730 1364.768066,135.395432 
	C1364.552734,135.204483 1364.337524,135.013535 1364.122192,134.822586 
	C1363.354736,135.488998 1362.587280,136.155426 1361.333130,136.964111 
	C1361.146362,137.233902 1360.959595,137.503693 1360.057373,137.900253 
	C1357.395508,137.640488 1357.153198,136.446152 1359.030029,134.809921 
	C1361.149048,132.962555 1363.532959,131.415314 1365.620361,129.536240 
	C1368.447876,126.991013 1369.967041,130.002808 1372.166016,130.649933 
	C1379.566162,132.827637 1385.439575,136.646957 1389.314697,143.500107 
	C1387.782349,144.648209 1386.648682,145.357925 1385.680176,146.247650 
	C1381.450684,150.133255 1380.843750,155.853165 1384.201416,159.616608 
	C1387.421021,163.225342 1393.623413,163.315918 1397.724976,159.701675 
	C1400.808105,156.984909 1402.192749,153.581299 1401.354126,149.430725 
	C1398.247925,134.058228 1386.531982,125.537605 1374.072388,119.631958 
	C1366.618286,116.098839 1359.234741,124.108414 1352.366821,128.216690 
	C1350.953125,129.062225 1349.695068,130.201721 1348.466797,131.317490 
	C1342.473999,136.761337 1342.610596,138.072571 1349.397827,142.096909 
	C1352.113281,143.706955 1355.034790,145.102875 1357.401978,147.133224 
	C1360.420654,149.722305 1362.972778,152.855331 1365.720825,155.748428 
	C1363.241821,157.744064 1361.526611,158.823563 1360.194214,160.258667 
	C1357.175049,163.510315 1356.798706,168.529922 1359.103271,171.755829 
	C1361.580688,175.224014 1366.463257,176.270065 1370.770142,174.255386 
	C1376.092163,171.765930 1378.271851,166.508575 1376.622681,159.924286 
	C1374.799072,152.644150 1370.018921,147.404037 1364.636841,142.541336 
	C1363.459351,141.477478 1362.743896,139.902298 1362.113892,138.417130 
	C1362.296875,138.281235 1362.429688,138.107025 1363.085938,137.559341 
M1367.452026,132.155441 
	C1367.387207,132.633530 1367.322510,133.111618 1367.257690,133.589706 
	C1367.844360,133.140961 1368.431030,132.692215 1369.632080,131.921585 
	C1369.535278,131.600403 1369.438477,131.279221 1369.341675,130.958023 
	C1368.870117,131.310760 1368.398438,131.663513 1367.452026,132.155441 
M153.967148,326.697571 
	C154.000610,327.853027 154.034058,329.008453 154.257217,331.063721 
	C154.257217,343.327301 154.257217,355.590912 154.257217,368.250092 
	C150.158447,368.250092 146.688660,368.201355 143.220810,368.262543 
	C138.993378,368.337036 136.751877,370.345428 136.892700,374.783783 
	C137.006866,378.381256 136.915878,381.985291 136.915878,386.113892 
	C130.411377,386.113892 124.585312,386.113892 118.759247,386.113892 
	C118.721443,386.399750 118.683647,386.685638 118.645851,386.971497 
	C130.708450,392.805176 142.771042,398.638885 155.029694,404.567413 
	C160.846161,395.644592 168.691254,392.964386 178.833374,396.290894 
	C185.692001,382.063324 192.491013,368.023315 199.175018,353.928802 
	C199.558975,353.119171 199.239502,351.765991 198.845978,350.835541 
	C197.449265,347.533142 198.728668,345.580963 201.605515,343.909454 
	C203.271851,342.941284 205.139236,341.606384 205.938141,339.961517 
	C230.283691,289.835327 254.509583,239.651047 278.737488,189.467804 
	C279.286835,188.329956 279.644348,187.099518 280.108887,185.865692 
	C270.874542,180.098450 269.017120,171.974670 271.961029,162.290848 
	C244.600006,149.085846 217.532394,136.022430 190.296036,122.877571 
	C184.511276,132.123993 176.413864,134.491684 166.563522,131.282578 
	C163.410309,137.794724 160.078888,143.784134 157.597366,150.107101 
	C155.890244,154.456940 154.463486,159.265656 154.444214,163.875671 
	C154.227005,215.868469 154.309311,267.862518 154.296555,319.856232 
	C154.296066,321.849121 154.147247,323.841980 153.967148,326.697571 
M15.779844,349.393860 
	C15.779844,351.518829 15.779844,353.643799 15.779844,355.717072 
	C26.369150,357.154083 32.043816,362.947449 33.437115,373.035309 
	C63.806885,373.035309 93.997009,373.035309 124.302109,373.035309 
	C125.692558,362.395874 131.935410,356.959473 142.001068,355.606354 
	C142.001068,340.074463 142.054611,324.924164 141.909424,309.775787 
	C141.896439,308.420197 140.261963,307.144867 139.970047,305.712189 
	C139.525345,303.529419 139.201889,301.177460 139.553970,299.015808 
	C139.936615,296.666443 141.888367,294.454376 141.894089,292.179260 
	C142.032669,237.212540 142.002136,182.245392 142.002136,127.278320 
	C142.002136,125.632706 142.002136,123.987083 142.002136,122.418152 
	C130.778870,120.069298 128.300278,117.648010 123.825638,104.836777 
	C93.793365,104.836777 63.708878,104.836777 33.351189,104.836777 
	C32.207012,115.398361 25.957127,120.854515 16.057678,122.336136 
	C15.938108,123.150864 15.804747,123.635689 15.804624,124.120544 
	C15.790261,180.586670 15.769603,237.052826 15.868705,293.518768 
	C15.871339,295.020081 16.846493,296.850983 17.944677,297.954254 
	C20.741175,300.763611 20.775274,303.200531 18.148098,306.141388 
	C17.003183,307.423004 15.906496,309.311554 15.882246,310.940765 
	C15.696347,323.430511 15.779958,335.924255 15.779844,349.393860 
M462.595886,147.084045 
	C438.183502,165.261703 430.781433,190.056580 436.635559,218.750259 
	C444.118042,255.425293 479.500275,276.837219 516.361633,268.206543 
	C544.819397,261.543457 567.378784,229.505844 562.820862,202.293945 
	C542.923706,202.293945 523.035583,202.293945 503.268341,202.293945 
	C503.268341,207.262772 503.268341,211.849014 503.268341,216.928497 
	C517.659790,216.928497 531.727173,216.928497 546.051025,216.928497 
	C545.829895,218.270508 545.770996,219.094406 545.554565,219.874603 
	C538.325134,245.940735 514.492798,259.413422 488.003235,252.422516 
	C460.758392,245.232285 445.381134,216.503159 453.628174,187.470474 
	C459.070221,168.312622 471.828522,155.910751 491.411346,152.525970 
	C511.484711,149.056396 529.552368,153.619614 542.461792,171.096558 
	C543.018494,171.850327 543.710754,172.503952 544.486084,173.366913 
	C548.202332,169.941025 551.706421,166.710693 555.765442,162.968842 
	C551.751465,158.548386 548.434998,154.111023 544.359558,150.539780 
	C523.295410,132.081375 488.550415,130.547394 462.595886,147.084045 
M1094.710449,238.164520 
	C1100.411011,226.882843 1103.461426,215.020218 1103.087769,202.326813 
	C1082.702148,202.326813 1062.834106,202.326813 1043.178833,202.326813 
	C1043.178833,207.323212 1043.178833,211.899323 1043.178833,216.978729 
	C1057.610962,216.978729 1071.656860,216.978729 1085.787231,216.978729 
	C1080.631226,244.314163 1055.142578,259.677490 1027.773682,252.407593 
	C1000.360718,245.126007 984.984985,216.092545 993.566528,186.960648 
	C999.189087,167.873749 1012.113098,155.624649 1031.728760,152.426025 
	C1051.632812,149.180374 1069.536865,153.760040 1082.266479,171.116379 
	C1082.816650,171.866470 1083.511963,172.510010 1084.287842,173.366699 
	C1088.024292,169.906662 1091.515381,166.673874 1095.135132,163.321915 
	C1093.510620,161.080704 1092.235596,159.132034 1090.774658,157.334320 
	C1070.882812,132.856873 1029.427856,127.854950 1002.256653,147.340729 
	C978.249817,164.557083 971.458801,188.958054 976.020935,217.079651 
	C980.302368,243.471420 1001.243774,264.144745 1027.659058,268.829132 
	C1056.352051,273.917511 1079.941895,263.287750 1094.710449,238.164520 
M346.876221,274.500031 
	C346.876221,190.606674 346.876221,106.713326 346.876221,22.620968 
	C342.649628,22.620968 339.077820,22.620968 335.339630,22.620968 
	C335.339630,166.929459 335.339630,310.922638 335.339630,455.069153 
	C339.233093,455.069153 342.836060,455.069153 346.876221,455.069153 
	C346.876221,395.034271 346.876221,335.267151 346.876221,274.500031 
M720.302856,195.499817 
	C720.302856,219.589111 720.302856,243.678391 720.302856,267.806458 
	C725.650269,267.806458 730.258667,267.806458 735.246704,267.806458 
	C735.246704,251.589478 735.217590,235.610947 735.274109,219.632736 
	C735.284119,216.814453 735.404358,213.953094 735.898865,211.187653 
	C737.805969,200.521927 747.175171,193.654419 758.515625,194.427109 
	C769.096558,195.148041 774.494446,201.139603 775.194946,213.001556 
	C775.322510,215.161667 775.333618,217.330841 775.335388,219.495865 
	C775.347229,233.824692 775.341736,248.153534 775.341919,262.482361 
	C775.341919,264.243591 775.341980,266.004852 775.341980,267.793823 
	C780.688232,267.793823 785.290771,267.793823 789.845825,267.793823 
	C789.845825,247.069534 790.506226,226.569672 789.594177,206.139999 
	C789.060669,194.189804 782.581177,184.972473 770.169312,181.691162 
	C757.658020,178.383560 746.771790,181.109451 738.282532,191.397034 
	C737.640320,192.175323 736.825012,192.810791 735.209839,194.353531 
	C735.209839,169.782074 735.209839,146.389236 735.209839,122.915993 
	C730.053711,122.915993 725.459717,122.915993 720.302856,122.915993 
	C720.302856,146.955002 720.302856,170.727402 720.302856,195.499817 
M836.687134,250.922440 
	C829.649170,245.417740 827.009705,237.883011 826.310791,228.773453 
	C848.926453,228.773453 871.161804,228.773453 894.143433,228.773453 
	C893.782349,223.803436 893.670532,219.348923 893.102478,214.953369 
	C890.749573,196.745987 879.284241,184.084412 862.677429,181.141922 
	C842.171265,177.508545 824.200623,185.717209 815.784790,202.474884 
	C811.298706,211.407516 810.392517,220.920120 811.068787,230.675354 
	C812.760376,255.072098 830.804321,271.221741 855.012451,269.864227 
	C870.935059,268.971252 883.552124,262.220612 892.302002,248.057419 
	C888.202454,245.475571 884.440979,243.106628 880.727539,240.767944 
	C865.001587,257.032318 851.878174,260.176147 836.687134,250.922440 
M1400.213745,39.710884 
	C1394.715820,44.244362 1388.813599,48.379719 1383.841064,53.430454 
	C1379.437744,57.903015 1380.058350,59.879784 1385.298950,63.232937 
	C1390.900757,66.817177 1396.698853,70.095207 1402.290649,73.694389 
	C1408.301880,77.563660 1412.970947,82.662773 1415.653809,89.503601 
	C1413.660522,90.719086 1411.499023,91.701431 1409.744873,93.170280 
	C1404.686401,97.405891 1401.977905,102.808502 1403.415161,109.486969 
	C1404.653687,115.241760 1408.533081,118.771194 1414.312012,119.835846 
	C1424.973755,121.800056 1435.227051,113.074921 1434.974121,102.214012 
	C1434.751709,92.667763 1430.900879,84.475861 1424.811523,77.298195 
	C1420.090576,71.733437 1415.214111,66.300751 1409.940430,60.276470 
	C1414.710938,56.668934 1420.739990,52.070122 1426.839111,47.566257 
	C1427.374878,47.170712 1428.529297,47.080944 1429.128174,47.382164 
	C1439.247192,52.471172 1449.565552,57.354488 1454.712646,68.649811 
	C1452.787231,69.960663 1450.691772,71.054756 1449.006592,72.597252 
	C1444.127319,77.063461 1441.728027,82.612000 1443.448608,89.202812 
	C1444.877686,94.677490 1448.749756,98.016655 1454.355835,98.898071 
	C1466.149292,100.752281 1476.317261,90.204437 1474.427002,78.361748 
	C1472.729126,67.724197 1467.710205,58.644604 1459.918457,51.662579 
	C1451.160889,43.815140 1441.554199,36.872086 1431.964966,30.028852 
	C1429.809326,28.490540 1425.744019,27.838243 1423.334961,28.775564 
	C1415.628052,31.774145 1408.286133,35.710812 1400.213745,39.710884 
M650.410461,239.500458 
	C650.390259,228.340836 650.584595,217.175537 650.290405,206.023148 
	C649.988586,194.581161 644.328674,186.853790 633.498413,183.163223 
	C620.904724,178.871780 608.241882,179.407471 595.889587,184.233765 
	C591.495728,185.950531 587.422729,188.488464 582.936096,190.788513 
	C585.742981,194.984833 588.032593,198.407913 590.416748,201.972260 
	C600.057983,195.207169 610.384399,192.277405 621.830444,193.968338 
	C627.534973,194.811050 633.079224,196.728928 634.487244,202.840012 
	C635.745728,208.302414 635.387878,214.137192 635.825012,221.111984 
	C625.324219,214.926056 615.287598,214.241959 605.054871,215.037231 
	C584.679199,216.620789 572.880676,233.212250 578.962952,251.605301 
	C583.096863,264.106232 597.464844,271.875610 612.139893,269.624481 
	C620.868103,268.285614 628.657715,265.060425 635.185547,257.552917 
	C635.443787,261.738922 635.631653,264.783417 635.813416,267.729919 
	C640.872986,267.729919 645.453735,267.729919 650.410339,267.729919 
	C650.410339,258.448669 650.410339,249.474564 650.410461,239.500458 
M1357.651001,192.553589 
	C1357.651001,189.265366 1357.651001,185.977127 1357.651001,182.435333 
	C1352.443481,182.435333 1347.852539,182.435333 1342.702515,182.435333 
	C1342.702515,185.995499 1342.720825,189.459808 1342.699219,192.923874 
	C1342.606812,207.746155 1343.078369,222.601746 1342.221313,237.380051 
	C1341.529907,249.299728 1332.109741,256.398224 1319.809937,255.918610 
	C1309.287720,255.508316 1303.403564,248.853180 1302.713379,236.538361 
	C1302.610962,234.710403 1302.616821,232.874985 1302.615845,231.042984 
	C1302.608398,216.715561 1302.611450,202.388138 1302.611328,188.060715 
	C1302.611328,186.273331 1302.611328,184.485962 1302.611328,182.434448 
	C1297.415527,182.434448 1292.828369,182.434448 1288.287476,182.434448 
	C1288.287476,203.331680 1287.452148,224.155090 1288.609985,244.867065 
	C1289.273682,256.739380 1296.646973,265.761566 1308.843262,268.833374 
	C1321.343750,271.981750 1332.272705,269.060089 1340.330322,258.253662 
	C1340.751221,257.689240 1341.441650,257.325775 1342.853760,256.183472 
	C1342.853760,260.713989 1342.853760,264.271332 1342.853760,267.730347 
	C1348.046021,267.730347 1352.631348,267.730347 1357.651001,267.730347 
	C1357.651001,242.788940 1357.651001,218.164230 1357.651001,192.553589 
M1188.453125,182.168930 
	C1186.019531,182.168930 1183.585938,182.168930 1180.811401,182.168930 
	C1180.811401,198.834976 1180.835205,214.801620 1180.788086,230.768051 
	C1180.780273,233.419312 1180.695679,236.109436 1180.249023,238.713455 
	C1178.336426,249.866135 1169.447021,256.543335 1157.575928,255.910065 
	C1147.298706,255.361832 1141.377563,248.596771 1140.824097,236.734055 
	C1140.738892,234.905807 1140.742188,233.072449 1140.741333,231.241425 
	C1140.735107,216.756500 1140.745728,202.271545 1140.727295,187.786652 
	C1140.724976,186.020981 1140.581055,184.255478 1140.502930,182.493500 
	C1135.366455,182.493500 1130.786377,182.493500 1126.170044,182.493500 
	C1126.170044,203.097702 1125.403687,223.417496 1126.455566,243.642746 
	C1127.093018,255.900833 1134.102661,265.452393 1146.689209,268.759216 
	C1159.576538,272.145081 1170.741211,268.948639 1178.856323,257.674713 
	C1179.181519,257.222839 1179.687012,256.900635 1180.955688,255.749207 
	C1180.955688,260.443909 1180.955688,264.139709 1180.955688,267.738800 
	C1186.150879,267.738800 1190.732056,267.738800 1195.307861,267.738800 
	C1195.307861,239.094376 1195.307861,210.760330 1195.307861,182.168930 
	C1193.033203,182.168930 1191.210571,182.168930 1188.453125,182.168930 
M691.469055,211.503571 
	C691.469055,206.562042 691.469055,201.620529 691.469055,196.204498 
	C696.404602,196.204498 700.674683,196.204498 705.109253,196.204498 
	C705.109253,191.300171 705.109253,186.888519 705.109253,182.033539 
	C700.494568,182.033539 696.220398,182.033539 691.403198,182.033539 
	C691.403198,172.021851 691.403198,162.443954 691.403198,152.633881 
	C686.280884,152.633881 681.717773,152.633881 676.608398,152.633881 
	C676.608398,162.484131 676.608398,172.063492 676.608398,182.062195 
	C671.798706,182.062195 667.520386,182.062195 662.928955,182.062195 
	C662.928955,186.915070 662.928955,191.335968 662.928955,196.231689 
	C667.386780,196.231689 671.660767,196.231689 676.623291,196.231689 
	C676.623291,220.386703 676.623291,244.081924 676.623291,267.723083 
	C681.910400,267.723083 686.491882,267.723083 691.468994,267.723083 
	C691.468994,249.110062 691.468994,230.806091 691.469055,211.503571 
M1266.309814,195.953476 
	C1268.381470,192.795975 1270.453125,189.638489 1272.633301,186.315414 
	C1267.459473,181.147705 1261.188477,179.168243 1254.986694,180.857986 
	C1249.246094,182.421997 1244.124023,186.255386 1238.823486,189.039993 
	C1238.699585,187.415283 1238.515259,184.999374 1238.317749,182.411957 
	C1233.358643,182.411957 1228.776978,182.411957 1224.067261,182.411957 
	C1224.067261,211.035141 1224.067261,239.411865 1224.067261,267.733398 
	C1229.026489,267.733398 1233.612671,267.733398 1238.637085,267.733398 
	C1238.637085,265.454712 1238.626099,263.485809 1238.638794,261.517029 
	C1238.750610,244.188950 1238.406738,226.841721 1239.128662,209.538971 
	C1239.697632,195.908630 1249.803345,190.725037 1261.900635,196.854538 
	C1262.930908,197.376572 1264.564453,196.707962 1266.309814,195.953476 
M914.285889,215.499847 
	C914.285889,232.910629 914.285889,250.321411 914.285889,267.859009 
	C919.584656,267.859009 924.204407,267.859009 929.239014,267.859009 
	C929.239014,265.858185 929.238770,264.046844 929.238953,262.235474 
	C929.240601,247.096069 929.127258,231.955200 929.317383,216.818161 
	C929.371216,212.538635 929.871460,208.155716 930.945435,204.022491 
	C932.743530,197.101837 937.653259,193.732391 944.716431,194.586151 
	C948.365662,195.027252 951.873474,196.638916 955.797852,197.828613 
	C958.169800,194.271774 960.723389,190.442566 963.591003,186.142593 
	C950.760010,176.622192 939.816528,179.324326 929.505737,190.980911 
	C929.291626,187.347672 929.147705,184.906097 929.002258,182.439301 
	C924.078308,182.439301 919.487610,182.439301 914.285950,182.439301 
	C914.285950,193.301270 914.285950,203.900543 914.285889,215.499847 
M1206.665527,327.836578 
	C1206.665527,322.217743 1206.665527,316.598907 1206.665527,310.691589 
	C1204.604736,310.691589 1202.925903,310.691589 1201.268311,310.691589 
	C1201.268311,328.487335 1201.268311,345.902954 1201.268311,363.318573 
	C1201.659546,363.606384 1202.050659,363.894165 1202.441895,364.181946 
	C1203.986572,362.631531 1205.531250,361.081116 1207.154297,359.452148 
	C1211.943115,364.567810 1218.119629,365.575500 1224.672485,362.911499 
	C1231.401733,360.175751 1233.292603,354.039368 1233.823120,347.489716 
	C1234.061768,344.543854 1233.855225,341.472900 1233.292969,338.566589 
	C1230.902954,326.211914 1219.598389,321.649139 1209.065552,328.594879 
	C1208.493286,328.972198 1207.477539,328.676819 1206.665527,327.836578 
M883.311523,361.751617 
	C883.454590,360.284180 883.597656,358.816742 883.766663,357.083923 
	C867.304504,361.699463 859.671936,358.049774 860.130432,345.925110 
	C868.360535,345.925110 876.617798,345.925110 884.791504,345.925110 
	C886.452454,335.074280 882.058228,327.420746 873.579651,325.798218 
	C864.254822,324.013763 856.918213,328.774353 854.429016,338.224670 
	C851.458374,349.502808 855.670959,359.868591 864.560730,363.050720 
	C865.803162,363.495422 867.168274,364.064789 868.415833,363.944672 
	C873.164124,363.487427 877.887512,362.771179 883.311523,361.751617 
M622.870422,355.451080 
	C628.103394,363.675140 636.876953,366.315033 647.358765,363.086609 
	C650.636047,362.077179 651.667053,360.445648 650.316895,357.308960 
	C633.523071,361.351562 626.362488,357.934937 627.252136,345.877502 
	C635.436340,345.877502 643.662781,345.877502 651.811035,345.877502 
	C653.410278,334.449463 648.767822,326.963287 639.610413,325.626221 
	C630.132935,324.242401 622.156311,330.112976 621.195312,340.098206 
	C620.733337,344.898651 622.032349,349.868622 622.870422,355.451080 
M1117.046997,325.577301 
	C1111.865479,326.151031 1108.019165,328.747772 1105.459106,333.263519 
	C1101.402954,340.418152 1101.898560,352.055450 1106.496826,357.995239 
	C1111.003418,363.816589 1119.906494,365.756073 1129.008911,363.183319 
	C1132.383789,362.229431 1133.872314,360.749390 1132.294312,357.268005 
	C1115.942749,361.585205 1107.823120,357.634979 1109.490479,345.921204 
	C1117.562866,345.921204 1125.687744,345.921204 1133.739868,345.921204 
	C1136.220215,333.575165 1129.971069,325.690338 1117.046997,325.577301 
M1163.909790,358.542603 
	C1170.391235,365.490875 1178.355469,364.862457 1186.566650,362.978699 
	C1189.995850,362.191986 1190.514526,360.194733 1189.218750,357.237122 
	C1173.242188,361.685852 1165.879639,358.193604 1166.047119,346.024841 
	C1174.273071,346.024841 1182.515259,346.024841 1190.669189,346.024841 
	C1192.590088,335.819305 1188.317139,327.779297 1180.293091,325.913025 
	C1170.737549,323.690552 1162.570435,328.615540 1160.424316,338.416901 
	C1158.941040,345.191864 1159.049683,351.987610 1163.909790,358.542603 
M986.900574,359.485626 
	C986.026794,358.909088 985.114807,357.791779 984.285950,357.850342 
	C980.836792,358.094025 977.407043,359.116974 973.980286,359.072723 
	C966.513184,358.976379 962.497986,353.891449 963.458984,345.798828 
	C971.620972,345.798828 979.847656,345.798828 988.347046,345.798828 
	C988.347046,343.684143 988.463074,342.044525 988.327759,340.425903 
	C987.589722,331.596344 982.996582,326.454010 975.099670,325.518524 
	C966.888123,324.545776 959.983643,328.908081 957.979553,337.344330 
	C956.935669,341.738464 956.631653,346.690857 957.512878,351.086487 
	C959.920532,363.095947 976.300842,368.865967 986.432861,361.654541 
	C986.749329,361.429260 986.743286,360.750793 986.900574,359.485626 
M1288.750610,330.405640 
	C1294.000000,332.198975 1294.256592,336.219421 1293.800903,340.393402 
	C1287.925903,341.347565 1282.396729,341.741394 1277.177979,343.226349 
	C1271.234741,344.917480 1268.948730,349.508698 1269.872314,355.690033 
	C1270.639771,360.826263 1274.614502,364.470856 1280.561157,363.964447 
	C1285.225708,363.567169 1289.757324,361.609436 1294.390625,360.333282 
	C1294.990234,360.927155 1296.323608,362.247772 1297.656860,363.568359 
	C1298.336792,361.809967 1299.522949,360.074280 1299.603027,358.288971 
	C1299.856567,352.635803 1299.711304,346.964050 1299.693359,341.299561 
	C1299.651855,328.152954 1294.650879,323.851471 1281.674072,325.993927 
	C1279.102051,326.418579 1276.631592,327.458679 1273.676514,328.346466 
	C1274.406860,330.070160 1274.949585,331.351410 1275.219727,331.988831 
	C1279.824463,331.348389 1283.894653,330.782288 1288.750610,330.405640 
M1354.481079,345.954620 
	C1358.230957,345.954620 1361.980835,345.954620 1366.024170,345.954620 
	C1365.860229,343.018829 1365.939575,340.842224 1365.585449,338.738525 
	C1364.214600,330.592377 1359.413208,326.040558 1351.772217,325.436951 
	C1344.163086,324.835846 1337.738037,328.987396 1335.430542,336.547791 
	C1332.993652,344.531799 1332.925659,352.553894 1338.950195,359.077026 
	C1344.872925,365.489838 1352.607422,364.756409 1360.348511,363.171661 
	C1364.013672,362.421326 1365.008179,360.559784 1363.599121,357.194672 
	C1347.837402,361.761993 1339.677124,357.864044 1340.601562,345.954620 
	C1344.881348,345.954620 1349.188110,345.954620 1354.481079,345.954620 
M788.613831,330.647125 
	C791.090454,327.235657 792.936096,322.958069 796.177612,320.596588 
	C802.534912,315.965271 809.791016,318.200531 816.878723,320.430450 
	C817.585510,318.674866 818.156372,317.257111 818.717468,315.863495 
	C806.488831,310.498169 793.763062,312.556549 787.047363,320.677155 
	C780.105591,329.071167 779.370544,345.523865 785.511047,355.066284 
	C790.658142,363.064941 801.419556,366.132660 813.302185,363.383179 
	C817.055847,362.514679 817.950073,360.872040 816.519714,357.392822 
	C814.508728,357.843048 812.592712,358.347412 810.648682,358.694946 
	C797.978577,360.960358 789.225647,355.145172 788.019470,343.336090 
	C787.619446,339.419708 788.187866,335.404419 788.613831,330.647125 
M455.193268,338.516296 
	C455.427521,332.196259 456.609802,326.162598 461.769318,321.886322 
	C468.823608,316.039581 476.668365,317.867401 484.554199,320.436768 
	C485.245697,318.774139 485.794006,317.455811 486.326416,316.175690 
	C475.946381,310.197327 461.590240,312.385315 454.670929,320.800140 
	C447.753754,329.212372 447.110107,345.698761 453.327118,355.221954 
	C458.484802,363.122528 469.425781,366.145905 481.229401,363.329010 
	C485.011505,362.426453 485.771362,360.754547 484.318848,357.372040 
	C482.253540,357.833435 480.322357,358.337708 478.363800,358.690002 
	C468.871857,360.397339 461.297577,357.739960 458.093628,350.842651 
	C456.459961,347.325806 456.122803,343.206635 455.193268,338.516296 
M1059.997314,347.314056 
	C1064.248901,361.461639 1075.431274,367.129272 1091.040405,363.347748 
	C1094.688232,362.463989 1095.812866,360.949921 1094.298462,357.439423 
	C1084.993286,359.280701 1075.165527,361.880737 1068.853027,352.159302 
	C1063.402344,343.764984 1063.280884,334.200043 1068.599731,325.662903 
	C1074.974121,315.431580 1084.814941,317.337708 1094.532349,320.399933 
	C1095.204712,318.735504 1095.737915,317.415375 1096.254761,316.135651 
	C1079.368042,306.660156 1060.418091,316.682007 1059.153809,335.577820 
	C1058.912598,339.181793 1059.602417,342.848114 1059.997314,347.314056 
M920.421692,330.374786 
	C915.141296,324.416260 905.019104,323.790222 896.629883,329.066467 
	C897.095703,330.191254 897.579468,331.359161 898.050537,332.496582 
	C912.836670,328.215637 918.079163,330.689026 915.950562,340.874176 
	C913.182556,341.103760 910.354614,341.204559 907.570251,341.606934 
	C904.786926,342.009155 901.925049,342.383881 899.314026,343.353485 
	C894.015381,345.321075 891.490112,349.912018 892.331909,355.200989 
	C893.188721,360.585144 896.929871,364.342529 902.705078,363.919678 
	C907.533752,363.566132 912.246155,361.623199 917.220581,360.329346 
	C918.447571,363.524048 918.447571,363.524048 922.160645,362.747223 
	C922.160645,357.657654 922.333984,352.500732 922.113159,347.360748 
	C921.879333,341.919159 921.270630,336.493652 920.421692,330.374786 
M501.185608,327.496674 
	C492.761658,333.423462 490.091278,345.798340 495.128906,355.564117 
	C500.179596,365.355225 514.764526,367.333038 522.329285,359.252686 
	C528.049194,353.142914 528.882141,340.115631 524.032593,332.613251 
	C519.577759,325.721497 511.333893,323.681885 501.185608,327.496674 
M605.375854,359.975952 
	C605.177490,364.827240 608.022461,363.793396 610.984497,363.037201 
	C610.984497,354.158813 611.208130,345.505341 610.913025,336.869568 
	C610.681580,330.096069 607.122131,326.687103 600.460388,325.638550 
	C594.619934,324.719269 589.725464,326.555939 585.266785,331.107513 
	C584.947327,327.487701 584.389343,324.641052 580.169983,326.523438 
	C580.169983,338.716949 580.169983,350.946594 580.169983,363.123199 
	C584.466431,364.538513 585.748718,363.032623 585.653503,358.953247 
	C585.502258,352.475006 585.508850,345.956360 586.067810,339.508484 
	C586.629883,333.024658 590.923218,329.821228 597.352844,330.217926 
	C602.832458,330.556000 605.196777,333.366943 605.331055,340.110260 
	C605.456970,346.431854 605.368347,352.757782 605.375854,359.975952 
M542.664673,361.753235 
	C542.758545,354.598083 542.677612,347.434753 543.013184,340.290955 
	C543.208130,336.140076 544.750977,332.496735 549.219238,330.973297 
	C557.182434,328.258301 562.316223,331.723785 562.521423,340.251343 
	C562.704529,347.860992 562.559937,355.478516 562.559937,363.235596 
	C564.696716,363.235596 566.242432,363.235596 567.974426,363.235596 
	C567.974426,353.922546 568.243713,344.945526 567.879944,335.994263 
	C567.636292,329.998047 564.091187,326.819214 558.143005,325.750580 
	C552.151611,324.674103 547.041077,326.339783 542.077515,331.455505 
	C542.404602,327.043823 541.211853,324.988312 537.204468,326.417267 
	C537.204468,338.607941 537.204468,350.848389 537.204468,363.880920 
	C539.222290,363.389862 540.860657,362.991150 542.664673,361.753235 
M1311.763306,348.275208 
	C1311.768799,349.773621 1311.744995,351.272766 1311.784302,352.770294 
	C1312.014038,361.517609 1316.778442,365.339996 1325.477905,364.011414 
	C1328.715820,363.516907 1329.132812,361.923279 1328.229126,359.097839 
	C1323.618652,359.378235 1318.163818,360.705322 1317.710693,354.046173 
	C1317.195435,346.476501 1317.591553,338.844849 1317.591553,330.601074 
	C1320.200684,330.601074 1322.492554,330.477112 1324.765991,330.628754 
	C1328.640625,330.887238 1328.867310,329.040619 1327.647339,325.800415 
	C1324.275513,325.800415 1320.997925,325.800415 1317.371460,325.800415 
	C1317.371460,323.965118 1317.580811,322.442505 1317.308838,321.011383 
	C1317.068237,319.745331 1316.291504,318.581146 1315.751587,317.372009 
	C1314.866211,318.382263 1313.482788,319.267151 1313.190918,320.426788 
	C1312.386230,323.624451 1311.480347,326.422180 1307.728149,327.270844 
	C1307.085327,327.416290 1306.692871,328.669250 1305.926636,329.787231 
	C1308.085693,330.341797 1309.764893,330.773071 1311.763184,331.286377 
	C1311.763184,336.724426 1311.763184,342.024139 1311.763306,348.275208 
M666.084778,348.888184 
	C666.037781,348.059113 665.964294,347.230591 665.947693,346.400909 
	C665.673767,332.705383 671.161255,328.388245 684.525757,331.758057 
	C684.808105,331.829224 685.152771,331.653351 685.732178,331.542114 
	C686.141113,330.310791 686.587036,328.967896 687.021545,327.659576 
	C674.346619,321.735596 662.197937,327.590790 660.190552,340.327240 
	C657.596741,356.783844 668.108643,367.544281 682.921265,363.644165 
	C686.161316,362.791077 687.887390,361.334717 686.145447,357.823517 
	C672.286255,360.525879 669.307739,359.298706 666.084778,348.888184 
M944.549988,326.004425 
	C943.111816,325.914124 941.673645,325.823792 939.855347,325.709625 
	C939.855347,322.734436 939.855347,320.135193 939.855347,317.428925 
	C934.682129,317.180542 936.410034,321.676819 934.795776,323.636993 
	C933.036377,325.773254 930.749878,327.475403 927.974121,330.028046 
	C930.798950,330.503540 932.343933,330.763611 933.662537,330.985565 
	C933.910767,331.476654 934.050415,331.624725 934.051819,331.774109 
	C934.116028,338.599640 934.085388,345.427185 934.241943,352.250458 
	C934.450256,361.331543 938.692444,364.921814 947.565613,364.073914 
	C951.067932,363.739258 951.783447,362.184509 950.762573,359.184937 
	C942.681885,359.580078 940.379211,358.536987 940.176819,353.537354 
	C939.875183,346.087402 940.098633,338.616241 940.098633,331.832886 
	C943.264709,328.437927 950.153809,334.153748 951.202637,326.004547 
	C948.767944,326.004547 947.122314,326.004547 944.549988,326.004425 
M712.651123,329.183075 
	C713.109619,326.797546 712.157043,325.835419 709.715027,325.970337 
	C707.146057,326.112213 704.563049,326.002075 701.774597,326.002075 
	C701.774597,323.240906 701.883484,321.240448 701.713196,319.263977 
	C701.656677,318.608521 700.989563,317.668091 700.406982,317.488220 
	C699.794128,317.299011 698.316772,317.822662 698.297974,318.106232 
	C697.953857,323.315857 694.039490,326.037720 690.796326,329.241852 
	C690.705200,329.331879 691.008057,329.820709 691.188049,330.278320 
	C692.670715,330.543457 694.232178,330.822723 695.965210,331.132629 
	C695.965210,338.359131 695.920654,345.339355 695.976379,352.318787 
	C696.047729,361.260895 700.375061,364.979767 709.239319,364.073120 
	C712.471069,363.742584 713.681274,362.476746 712.488464,359.084015 
	C710.764832,359.204285 708.820435,359.932373 707.578430,359.294006 
	C705.482056,358.216431 702.365234,356.378662 702.242676,354.675995 
	C701.675476,346.794830 701.992004,338.850128 701.992004,331.058563 
	C705.787598,330.647491 709.042236,330.294983 712.651123,329.183075 
M1144.003784,320.546570 
	C1144.003784,334.788086 1144.003784,349.029633 1144.003784,363.645996 
	C1146.305664,363.523956 1147.885620,363.440186 1149.600586,363.349243 
	C1149.600586,345.564545 1149.600586,328.184479 1149.600586,310.692657 
	C1147.610229,310.692657 1145.922241,310.692657 1144.003784,310.692657 
	C1144.003784,313.928131 1144.003784,316.748108 1144.003784,320.546570 
M827.059753,343.501434 
	C827.059753,350.086884 827.059753,356.672363 827.059753,363.625031 
	C829.404724,363.505951 830.986206,363.425659 832.956848,363.325592 
	C832.956848,359.640625 832.951721,356.343384 832.958313,353.046143 
	C832.965332,349.549927 832.862305,346.048218 833.021423,342.558655 
	C833.372437,334.860229 837.825378,330.738892 845.480042,330.848145 
	C846.257507,330.859253 847.035156,330.849640 847.983276,330.849640 
	C848.166138,329.099335 848.316406,327.660217 848.470947,326.181091 
	C841.780334,323.845398 837.217957,327.225281 832.733276,331.829681 
	C832.237732,329.501526 831.878784,327.815002 831.489868,325.987793 
	C829.931458,326.090118 828.675720,326.172577 827.059753,326.278656 
	C827.059753,331.894989 827.059753,337.198792 827.059753,343.501434 
M1243.843872,340.505402 
	C1243.843872,348.081024 1243.843872,355.656647 1243.843872,363.641235 
	C1246.078735,363.496429 1247.626953,363.396118 1249.739014,363.259277 
	C1249.739014,355.878418 1249.497070,348.927460 1249.811401,342.001770 
	C1250.091187,335.837097 1253.701294,331.626801 1258.680176,330.982483 
	C1260.593018,330.734924 1262.564697,330.942108 1264.742310,330.942108 
	C1264.866699,329.030121 1264.959229,327.606506 1265.057251,326.099640 
	C1258.236206,323.949677 1253.491089,327.030151 1249.295532,332.486542 
	C1248.545654,325.908142 1248.545654,325.908142 1243.843872,326.683899 
	C1243.843872,330.919586 1243.843872,335.214355 1243.843872,340.505402 
M1016.222961,335.977936 
	C1015.862000,340.418488 1016.314575,344.633759 1021.502441,345.877625 
	C1025.438110,346.821198 1028.799194,345.685211 1030.244019,341.332886 
	C1031.798950,336.649231 1029.988647,331.602203 1026.254517,330.262695 
	C1021.985046,328.731110 1018.674011,330.384125 1016.222961,335.977936 
M747.195618,346.028046 
	C752.518860,344.933807 753.291870,341.018341 752.975342,336.534637 
	C752.725525,332.995148 750.967163,330.602509 747.298462,329.985168 
	C742.627014,329.199097 739.394226,331.502960 738.728577,336.035583 
	C737.789917,342.427216 740.106628,345.472473 747.195618,346.028046 
z"/>
<path fill="#FEDB00" opacity="1.000000" stroke="none" 
	d="
M15.779840,348.905334 
	C15.779958,335.924255 15.696347,323.430511 15.882246,310.940765 
	C15.906496,309.311554 17.003183,307.423004 18.148098,306.141388 
	C20.775274,303.200531 20.741175,300.763611 17.944677,297.954254 
	C16.846493,296.850983 15.871339,295.020081 15.868705,293.518768 
	C15.769603,237.052826 15.790261,180.586670 15.804624,124.120544 
	C15.804747,123.635689 15.938108,123.150864 16.057678,122.336136 
	C25.957127,120.854515 32.207012,115.398361 33.351189,104.836777 
	C63.708878,104.836777 93.793365,104.836777 123.825638,104.836777 
	C128.300278,117.648010 130.778870,120.069298 142.002136,122.418152 
	C142.002136,123.987083 142.002136,125.632706 142.002136,127.278320 
	C142.002136,182.245392 142.032669,237.212540 141.894089,292.179260 
	C141.888367,294.454376 139.936615,296.666443 139.553970,299.015808 
	C139.201889,301.177460 139.525345,303.529419 139.970047,305.712189 
	C140.261963,307.144867 141.896439,308.420197 141.909424,309.775787 
	C142.054611,324.924164 142.001068,340.074463 142.001068,355.606354 
	C131.935410,356.959473 125.692558,362.395874 124.302109,373.035309 
	C93.997009,373.035309 63.806885,373.035309 33.437115,373.035309 
	C32.043816,362.947449 26.369150,357.154083 15.779844,355.717072 
	C15.779844,353.643799 15.779844,351.518829 15.779840,348.905334 
M78.909355,184.265594 
	C79.036720,185.668777 79.164093,187.071945 79.273544,188.277771 
	C83.570221,188.277771 87.307358,188.277771 91.062180,188.277771 
	C91.062180,169.998566 91.062180,152.112640 91.062180,134.207703 
	C86.913277,134.207703 83.140778,134.207703 78.909187,134.207703 
	C78.909187,150.735443 78.909187,167.022446 78.909355,184.265594 
M66.165039,172.497131 
	C66.165039,159.773605 66.165039,147.050064 66.165039,134.210953 
	C63.161770,134.210953 60.757973,134.210953 58.296875,134.210953 
	C58.296875,152.424820 58.296875,170.388046 58.296875,188.283386 
	C61.086628,188.283386 63.476101,188.283386 66.165047,188.283386 
	C66.165047,183.101013 66.165047,178.297958 66.165039,172.497131 
M53.695915,150.503082 
	C53.693237,146.007690 53.631771,141.511322 53.707912,137.017258 
	C53.761375,133.861664 52.335918,133.284119 49.658955,134.379822 
	C49.523434,134.899246 49.292080,135.374039 49.291107,135.849289 
	C49.257343,152.331894 49.197151,168.814941 49.333324,185.296326 
	C49.342896,186.454605 50.826061,187.600693 51.624001,188.752457 
	C52.313782,187.490921 53.584351,186.237610 53.602356,184.966553 
	C53.760357,173.813538 53.694996,162.657364 53.695915,150.503082 
M70.242538,162.499908 
	C70.242943,169.825882 70.133095,177.154953 70.337898,184.475204 
	C70.378273,185.918137 71.631363,187.327164 72.325172,188.751816 
	C73.122795,187.264252 74.534195,185.806641 74.608452,184.283798 
	C74.883850,178.636230 74.718864,172.967163 74.718933,167.306183 
	C74.719078,156.343811 74.718979,145.381439 74.718979,134.558090 
	C71.010948,133.016861 70.184532,134.501129 70.216919,137.524277 
	C70.302551,145.515320 70.243851,153.507919 70.242538,162.499908 
M95.410988,147.514984 
	C95.411804,159.990997 95.459518,172.467285 95.382210,184.942810 
	C95.361481,188.287064 96.410896,189.567001 99.735916,188.141190 
	C99.735916,170.037048 99.735916,152.130188 99.735916,134.314972 
	C96.369400,133.185959 95.217293,134.387619 95.381439,137.541412 
	C95.536865,140.527481 95.412460,143.528137 95.410988,147.514984 
M107.308380,188.457870 
	C107.539207,188.035477 107.970512,187.613785 107.971977,187.190582 
	C108.030685,170.259781 108.099571,153.328384 107.943222,136.399139 
	C107.934593,135.465256 106.013931,134.549042 104.983253,133.624603 
	C103.964775,151.610153 103.920021,168.528397 104.071106,185.444901 
	C104.080620,186.509171 105.619194,187.559784 107.308380,188.457870 
M114.554306,305.206818 
	C116.010368,302.367889 116.216118,299.468536 113.020615,298.005676 
	C111.637451,297.372498 108.422729,297.902649 107.881569,298.901825 
	C106.962959,300.597809 106.620880,304.003632 107.659164,305.000153 
	C108.894150,306.185455 111.841583,305.586517 114.554306,305.206818 
M34.326248,298.280334 
	C31.054770,296.390869 28.230734,297.035736 27.279434,300.662781 
	C26.857258,302.272430 27.986557,304.881836 29.283384,306.136108 
	C30.115318,306.940765 33.780495,306.561401 34.020409,305.914062 
	C34.823307,303.747620 34.656605,301.221863 34.326248,298.280334 
M58.797367,301.685120 
	C58.717312,304.772400 60.065109,307.154694 63.240891,306.783661 
	C64.871994,306.593109 67.370270,304.541168 67.501587,303.144653 
	C67.666168,301.394440 66.257767,298.616089 64.715561,297.779205 
	C61.978443,296.293854 59.740345,297.887970 58.797367,301.685120 
M90.697067,303.177124 
	C92.202019,304.438629 93.564796,306.357147 95.263214,306.724701 
	C96.348572,306.959625 98.538383,305.179260 99.162315,303.813354 
	C100.448021,300.998657 99.382881,298.327118 96.267509,297.555054 
	C92.499130,296.621155 90.741623,298.803467 90.697067,303.177124 
M123.825073,305.761078 
	C126.947685,307.888794 129.780701,307.485016 130.914352,303.851929 
	C131.418640,302.235748 130.493500,299.582489 129.284805,298.238312 
	C128.525360,297.393768 125.655983,297.483276 124.398788,298.247986 
	C121.694298,299.893036 121.744522,302.577515 123.825073,305.761078 
M82.209251,305.790924 
	C84.370331,303.218170 84.611183,300.388000 81.877533,298.421051 
	C80.648544,297.536743 77.327362,297.492584 76.644447,298.374725 
	C75.457008,299.908630 74.560226,303.191071 75.421333,304.387482 
	C76.415565,305.768829 79.444038,305.686066 82.209251,305.790924 
M44.549110,298.229523 
	C42.298752,300.683136 41.906715,303.508514 44.438679,305.647888 
	C45.577412,306.610077 48.661736,306.853607 49.658497,306.006195 
	C50.957691,304.901611 51.885937,302.197205 51.496815,300.524872 
	C50.796047,297.513184 48.286072,296.511444 44.549110,298.229523 
z"/>
<path fill="#FCDA01" opacity="1.000000" stroke="none" 
	d="
M154.067535,325.834839 
	C154.147247,323.841980 154.296066,321.849121 154.296555,319.856232 
	C154.309311,267.862518 154.227005,215.868469 154.444214,163.875671 
	C154.463486,159.265656 155.890244,154.456940 157.597366,150.107101 
	C160.078888,143.784134 163.410309,137.794724 166.563522,131.282578 
	C176.413864,134.491684 184.511276,132.123993 190.296036,122.877571 
	C217.532394,136.022430 244.600006,149.085846 271.961029,162.290848 
	C269.017120,171.974670 270.874542,180.098450 280.108887,185.865692 
	C279.644348,187.099518 279.286835,188.329956 278.737488,189.467804 
	C254.509583,239.651047 230.283691,289.835327 205.938141,339.961517 
	C205.139236,341.606384 203.271851,342.941284 201.605515,343.909454 
	C198.728668,345.580963 197.449265,347.533142 198.845978,350.835541 
	C199.239502,351.765991 199.558975,353.119171 199.175018,353.928802 
	C192.491013,368.023315 185.692001,382.063324 178.833374,396.290894 
	C168.691254,392.964386 160.846161,395.644592 155.029694,404.567413 
	C142.771042,398.638885 130.708450,392.805176 118.645851,386.971497 
	C118.683647,386.685638 118.721443,386.399750 118.759247,386.113892 
	C124.585312,386.113892 130.411377,386.113892 136.915878,386.113892 
	C136.915878,381.985291 137.006866,378.381256 136.892700,374.783783 
	C136.751877,370.345428 138.993378,368.337036 143.220810,368.262543 
	C146.688660,368.201355 150.158447,368.250092 154.257217,368.250092 
	C154.257217,355.590912 154.257217,343.327301 154.489197,330.451782 
	C155.359009,330.294861 155.995132,331.132721 156.634949,331.135529 
	C158.839493,331.145294 162.014801,331.660431 162.988037,330.476654 
	C164.038788,329.198578 163.031036,326.228088 162.921219,323.995850 
	C160.724106,324.238556 158.515015,324.407654 156.336197,324.762756 
	C155.542801,324.892059 154.821640,325.464539 154.067535,325.834839 
M211.306778,183.749771 
	C205.801117,195.210800 200.295456,206.671829 194.679749,218.361954 
	C198.725632,220.269333 202.241028,221.926620 206.057587,223.725891 
	C214.066452,207.114868 221.823746,191.025635 229.735703,174.615616 
	C225.718475,172.700775 222.201004,171.024155 218.384781,169.205124 
	C215.996567,174.162918 213.842575,178.634460 211.306778,183.749771 
M193.761658,191.293259 
	C198.127487,182.189087 202.493301,173.084900 207.012863,163.660156 
	C204.377594,162.389862 202.051666,161.268661 199.454941,160.016922 
	C191.474380,176.570587 183.658615,192.782455 175.748169,209.190674 
	C178.522507,210.501160 180.727753,211.542847 183.315872,212.765381 
	C186.772369,205.613159 190.077164,198.774872 193.761658,191.293259 
M225.786392,202.306152 
	C229.573776,194.409286 233.361160,186.512405 237.127167,178.660095 
	C235.047531,176.742996 233.517212,175.983353 232.047760,179.067963 
	C224.713425,194.464066 217.264374,209.805557 209.666229,225.559036 
	C211.187744,226.150482 212.427124,226.632263 213.756073,227.148849 
	C217.790634,218.769516 221.599106,210.859741 225.786392,202.306152 
M187.311111,165.738449 
	C180.983368,178.892975 174.655609,192.047516 168.214066,205.438614 
	C169.573196,206.100922 170.564407,206.583939 171.894730,207.232208 
	C179.785812,190.896423 187.577164,174.767075 195.368530,158.637726 
	C195.110657,158.156479 194.852783,157.675217 194.594910,157.193970 
	C193.304581,157.731461 191.540344,157.917618 190.825531,158.881775 
	C189.464340,160.717834 188.702484,162.998245 187.311111,165.738449 
M226.845123,209.316055 
	C224.097687,215.003967 221.424591,220.729507 218.571121,226.363724 
	C217.164658,229.140839 217.962097,230.301163 221.308807,230.493195 
	C228.782394,215.052536 236.341385,199.541229 243.702530,183.936569 
	C244.099960,183.094086 242.838409,181.468994 242.349121,180.208206 
	C241.832550,180.296890 241.315979,180.385590 240.799408,180.474274 
	C236.238312,189.854462 231.677216,199.234665 226.845123,209.316055 
M205.701828,176.104431 
	C199.528580,188.872879 193.355331,201.641312 187.182083,214.409760 
	C187.547867,214.877899 187.913666,215.346039 188.279449,215.814163 
	C189.528458,215.163742 191.425568,214.833710 191.929291,213.814835 
	C199.486359,198.528793 206.859787,183.151962 214.254623,167.841675 
	C212.196915,165.372025 210.704681,165.314331 209.437073,168.249802 
	C208.387344,170.680634 207.147980,173.029602 205.701828,176.104431 
M178.317154,332.207825 
	C176.082336,329.212616 173.261963,328.670074 170.968002,331.604767 
	C169.932281,332.929779 169.874695,335.747437 170.547760,337.413391 
	C170.967163,338.451508 174.479172,339.524933 175.042389,338.977264 
	C176.675827,337.388916 177.521194,334.990082 178.317154,332.207825 
M186.198044,337.397858 
	C185.697922,339.714630 184.816330,342.051666 184.937790,344.335358 
	C184.972733,344.992310 188.193695,346.306915 189.425812,345.860931 
	C190.920486,345.319946 192.686539,343.333588 192.872879,341.795441 
	C193.379562,337.613007 190.732086,336.384674 186.198044,337.397858 
z"/>
<path fill="#FCD901" opacity="1.000000" stroke="none" 
	d="
M462.898468,146.891510 
	C488.550415,130.547394 523.295410,132.081375 544.359558,150.539780 
	C548.434998,154.111023 551.751465,158.548386 555.765442,162.968842 
	C551.706421,166.710693 548.202332,169.941025 544.486084,173.366913 
	C543.710754,172.503952 543.018494,171.850327 542.461792,171.096558 
	C529.552368,153.619614 511.484711,149.056396 491.411346,152.525970 
	C471.828522,155.910751 459.070221,168.312622 453.628174,187.470474 
	C445.381134,216.503159 460.758392,245.232285 488.003235,252.422516 
	C514.492798,259.413422 538.325134,245.940735 545.554565,219.874603 
	C545.770996,219.094406 545.829895,218.270508 546.051025,216.928497 
	C531.727173,216.928497 517.659790,216.928497 503.268341,216.928497 
	C503.268341,211.849014 503.268341,207.262772 503.268341,202.293945 
	C523.035583,202.293945 542.923706,202.293945 562.820862,202.293945 
	C567.378784,229.505844 544.819397,261.543457 516.361633,268.206543 
	C479.500275,276.837219 444.118042,255.425293 436.635559,218.750259 
	C430.781433,190.056580 438.183502,165.261703 462.898468,146.891510 
z"/>
<path fill="#FCD901" opacity="1.000000" stroke="none" 
	d="
M1094.514893,238.477997 
	C1079.941895,263.287750 1056.352051,273.917511 1027.659058,268.829132 
	C1001.243774,264.144745 980.302368,243.471420 976.020935,217.079651 
	C971.458801,188.958054 978.249817,164.557083 1002.256653,147.340729 
	C1029.427856,127.854950 1070.882812,132.856873 1090.774658,157.334320 
	C1092.235596,159.132034 1093.510620,161.080704 1095.135132,163.321915 
	C1091.515381,166.673874 1088.024292,169.906662 1084.287842,173.366699 
	C1083.511963,172.510010 1082.816650,171.866470 1082.266479,171.116379 
	C1069.536865,153.760040 1051.632812,149.180374 1031.728760,152.426025 
	C1012.113098,155.624649 999.189087,167.873749 993.566528,186.960648 
	C984.984985,216.092545 1000.360718,245.126007 1027.773682,252.407593 
	C1055.142578,259.677490 1080.631226,244.314163 1085.787231,216.978729 
	C1071.656860,216.978729 1057.610962,216.978729 1043.178833,216.978729 
	C1043.178833,211.899323 1043.178833,207.323212 1043.178833,202.326813 
	C1062.834106,202.326813 1082.702148,202.326813 1103.087769,202.326813 
	C1103.461426,215.020218 1100.411011,226.882843 1094.514893,238.477997 
z"/>
<path fill="#F9D702" opacity="1.000000" stroke="none" 
	d="
M346.876221,275.000061 
	C346.876221,335.267151 346.876221,395.034271 346.876221,455.069153 
	C342.836060,455.069153 339.233093,455.069153 335.339630,455.069153 
	C335.339630,310.922638 335.339630,166.929459 335.339630,22.620968 
	C339.077820,22.620968 342.649628,22.620968 346.876221,22.620968 
	C346.876221,106.713326 346.876221,190.606674 346.876221,275.000061 
z"/>
<path fill="#FAD802" opacity="1.000000" stroke="none" 
	d="
M720.302856,194.999817 
	C720.302856,170.727402 720.302856,146.955002 720.302856,122.915993 
	C725.459717,122.915993 730.053711,122.915993 735.209839,122.915993 
	C735.209839,146.389236 735.209839,169.782074 735.209839,194.353531 
	C736.825012,192.810791 737.640320,192.175323 738.282532,191.397034 
	C746.771790,181.109451 757.658020,178.383560 770.169312,181.691162 
	C782.581177,184.972473 789.060669,194.189804 789.594177,206.139999 
	C790.506226,226.569672 789.845825,247.069534 789.845825,267.793823 
	C785.290771,267.793823 780.688232,267.793823 775.341980,267.793823 
	C775.341980,266.004852 775.341919,264.243591 775.341919,262.482361 
	C775.341736,248.153534 775.347229,233.824692 775.335388,219.495865 
	C775.333618,217.330841 775.322510,215.161667 775.194946,213.001556 
	C774.494446,201.139603 769.096558,195.148041 758.515625,194.427109 
	C747.175171,193.654419 737.805969,200.521927 735.898865,211.187653 
	C735.404358,213.953094 735.284119,216.814453 735.274109,219.632736 
	C735.217590,235.610947 735.246704,251.589478 735.246704,267.806458 
	C730.258667,267.806458 725.650269,267.806458 720.302856,267.806458 
	C720.302856,243.678391 720.302856,219.589111 720.302856,194.999817 
z"/>
<path fill="#FBD901" opacity="1.000000" stroke="none" 
	d="
M836.994751,251.124603 
	C851.878174,260.176147 865.001587,257.032318 880.727539,240.767944 
	C884.440979,243.106628 888.202454,245.475571 892.302002,248.057419 
	C883.552124,262.220612 870.935059,268.971252 855.012451,269.864227 
	C830.804321,271.221741 812.760376,255.072098 811.068787,230.675354 
	C810.392517,220.920120 811.298706,211.407516 815.784790,202.474884 
	C824.200623,185.717209 842.171265,177.508545 862.677429,181.141922 
	C879.284241,184.084412 890.749573,196.745987 893.102478,214.953369 
	C893.670532,219.348923 893.782349,223.803436 894.143433,228.773453 
	C871.161804,228.773453 848.926453,228.773453 826.310791,228.773453 
	C827.009705,237.883011 829.649170,245.417740 836.994751,251.124603 
M867.062317,197.288330 
	C849.570007,187.569656 828.946167,197.130554 827.295044,215.811249 
	C843.884949,215.811249 860.465271,215.811249 877.278137,215.811249 
	C876.856201,208.024628 873.696655,202.117340 867.062317,197.288330 
z"/>
<path fill="#FCD901" opacity="1.000000" stroke="none" 
	d="
M1400.508545,39.498116 
	C1408.286133,35.710812 1415.628052,31.774145 1423.334961,28.775564 
	C1425.744019,27.838243 1429.809326,28.490540 1431.964966,30.028852 
	C1441.554199,36.872086 1451.160889,43.815140 1459.918457,51.662579 
	C1467.710205,58.644604 1472.729126,67.724197 1474.427002,78.361748 
	C1476.317261,90.204437 1466.149292,100.752281 1454.355835,98.898071 
	C1448.749756,98.016655 1444.877686,94.677490 1443.448608,89.202812 
	C1441.728027,82.612000 1444.127319,77.063461 1449.006592,72.597252 
	C1450.691772,71.054756 1452.787231,69.960663 1454.712646,68.649811 
	C1449.565552,57.354488 1439.247192,52.471172 1429.128174,47.382164 
	C1428.529297,47.080944 1427.374878,47.170712 1426.839111,47.566257 
	C1420.739990,52.070122 1414.710938,56.668934 1409.940430,60.276470 
	C1415.214111,66.300751 1420.090576,71.733437 1424.811523,77.298195 
	C1430.900879,84.475861 1434.751709,92.667763 1434.974121,102.214012 
	C1435.227051,113.074921 1424.973755,121.800056 1414.312012,119.835846 
	C1408.533081,118.771194 1404.653687,115.241760 1403.415161,109.486969 
	C1401.977905,102.808502 1404.686401,97.405891 1409.744873,93.170280 
	C1411.499023,91.701431 1413.660522,90.719086 1415.653809,89.503601 
	C1412.970947,82.662773 1408.301880,77.563660 1402.290649,73.694389 
	C1396.698853,70.095207 1390.900757,66.817177 1385.298950,63.232937 
	C1380.058350,59.879784 1379.437744,57.903015 1383.841064,53.430454 
	C1388.813599,48.379719 1394.715820,44.244362 1400.508545,39.498116 
M1404.120605,58.333790 
	C1405.239136,58.617390 1406.824707,59.523262 1407.404053,59.088478 
	C1413.310669,54.655361 1419.053589,50.004066 1424.842285,45.413807 
	C1424.770142,45.003616 1424.697998,44.593422 1424.625977,44.183231 
	C1422.537964,44.291328 1420.029297,43.695000 1418.442383,44.642406 
	C1414.052734,47.262863 1409.947021,50.402050 1405.953491,53.615273 
	C1404.778931,54.560337 1404.353271,56.436428 1404.120605,58.333790 
z"/>
<path fill="#FCD901" opacity="1.000000" stroke="none" 
	d="
M650.410400,240.000458 
	C650.410339,249.474564 650.410339,258.448669 650.410339,267.729919 
	C645.453735,267.729919 640.872986,267.729919 635.813416,267.729919 
	C635.631653,264.783417 635.443787,261.738922 635.185547,257.552917 
	C628.657715,265.060425 620.868103,268.285614 612.139893,269.624481 
	C597.464844,271.875610 583.096863,264.106232 578.962952,251.605301 
	C572.880676,233.212250 584.679199,216.620789 605.054871,215.037231 
	C615.287598,214.241959 625.324219,214.926056 635.825012,221.111984 
	C635.387878,214.137192 635.745728,208.302414 634.487244,202.840012 
	C633.079224,196.728928 627.534973,194.811050 621.830444,193.968338 
	C610.384399,192.277405 600.057983,195.207169 590.416748,201.972260 
	C588.032593,198.407913 585.742981,194.984833 582.936096,190.788513 
	C587.422729,188.488464 591.495728,185.950531 595.889587,184.233765 
	C608.241882,179.407471 620.904724,178.871780 633.498413,183.163223 
	C644.328674,186.853790 649.988586,194.581161 650.290405,206.023148 
	C650.584595,217.175537 650.390259,228.340836 650.410400,240.000458 
M595.297852,233.014877 
	C590.846680,240.870895 592.326416,249.486847 598.876892,253.854080 
	C610.048950,261.302551 628.605957,255.704178 633.803894,243.317108 
	C637.877136,233.610336 636.207092,230.283157 626.083618,227.930237 
	C625.273010,227.741837 624.475830,227.432861 623.655945,227.356476 
	C613.899475,226.447632 603.955261,224.564301 595.297852,233.014877 
z"/>
<path fill="#F9D702" opacity="1.000000" stroke="none" 
	d="
M1357.651001,193.046555 
	C1357.651001,218.164230 1357.651001,242.788940 1357.651001,267.730347 
	C1352.631348,267.730347 1348.046021,267.730347 1342.853760,267.730347 
	C1342.853760,264.271332 1342.853760,260.713989 1342.853760,256.183472 
	C1341.441650,257.325775 1340.751221,257.689240 1340.330322,258.253662 
	C1332.272705,269.060089 1321.343750,271.981750 1308.843262,268.833374 
	C1296.646973,265.761566 1289.273682,256.739380 1288.609985,244.867065 
	C1287.452148,224.155090 1288.287476,203.331680 1288.287476,182.434448 
	C1292.828369,182.434448 1297.415527,182.434448 1302.611328,182.434448 
	C1302.611328,184.485962 1302.611328,186.273331 1302.611328,188.060715 
	C1302.611450,202.388138 1302.608398,216.715561 1302.615845,231.042984 
	C1302.616821,232.874985 1302.610962,234.710403 1302.713379,236.538361 
	C1303.403564,248.853180 1309.287720,255.508316 1319.809937,255.918610 
	C1332.109741,256.398224 1341.529907,249.299728 1342.221313,237.380051 
	C1343.078369,222.601746 1342.606812,207.746155 1342.699219,192.923874 
	C1342.720825,189.459808 1342.702515,185.995499 1342.702515,182.435333 
	C1347.852539,182.435333 1352.443481,182.435333 1357.651001,182.435333 
	C1357.651001,185.977127 1357.651001,189.265366 1357.651001,193.046555 
z"/>
<path fill="#FAD801" opacity="1.000000" stroke="none" 
	d="
M1188.920532,182.168930 
	C1191.210571,182.168930 1193.033203,182.168930 1195.307861,182.168930 
	C1195.307861,210.760330 1195.307861,239.094376 1195.307861,267.738800 
	C1190.732056,267.738800 1186.150879,267.738800 1180.955688,267.738800 
	C1180.955688,264.139709 1180.955688,260.443909 1180.955688,255.749207 
	C1179.687012,256.900635 1179.181519,257.222839 1178.856323,257.674713 
	C1170.741211,268.948639 1159.576538,272.145081 1146.689209,268.759216 
	C1134.102661,265.452393 1127.093018,255.900833 1126.455566,243.642746 
	C1125.403687,223.417496 1126.170044,203.097702 1126.170044,182.493500 
	C1130.786377,182.493500 1135.366455,182.493500 1140.502930,182.493500 
	C1140.581055,184.255478 1140.724976,186.020981 1140.727295,187.786652 
	C1140.745728,202.271545 1140.735107,216.756500 1140.741333,231.241425 
	C1140.742188,233.072449 1140.738892,234.905807 1140.824097,236.734055 
	C1141.377563,248.596771 1147.298706,255.361832 1157.575928,255.910065 
	C1169.447021,256.543335 1178.336426,249.866135 1180.249023,238.713455 
	C1180.695679,236.109436 1180.780273,233.419312 1180.788086,230.768051 
	C1180.835205,214.801620 1180.811401,198.834976 1180.811401,182.168930 
	C1183.585938,182.168930 1186.019531,182.168930 1188.920532,182.168930 
z"/>
<path fill="#FEDB00" opacity="1.000000" stroke="none" 
	d="
M691.468994,212.002838 
	C691.468994,230.806091 691.468994,249.110062 691.468994,267.723083 
	C686.491882,267.723083 681.910400,267.723083 676.623291,267.723083 
	C676.623291,244.081924 676.623291,220.386703 676.623291,196.231689 
	C671.660767,196.231689 667.386780,196.231689 662.928955,196.231689 
	C662.928955,191.335968 662.928955,186.915070 662.928955,182.062195 
	C667.520386,182.062195 671.798706,182.062195 676.608398,182.062195 
	C676.608398,172.063492 676.608398,162.484131 676.608398,152.633881 
	C681.717773,152.633881 686.280884,152.633881 691.403198,152.633881 
	C691.403198,162.443954 691.403198,172.021851 691.403198,182.033539 
	C696.220398,182.033539 700.494568,182.033539 705.109253,182.033539 
	C705.109253,186.888519 705.109253,191.300171 705.109253,196.204498 
	C700.674683,196.204498 696.404602,196.204498 691.469055,196.204498 
	C691.469055,201.620529 691.469055,206.562042 691.468994,212.002838 
z"/>
<path fill="#F9D702" opacity="1.000000" stroke="none" 
	d="
M1266.113770,196.272980 
	C1264.564453,196.707962 1262.930908,197.376572 1261.900635,196.854538 
	C1249.803345,190.725037 1239.697632,195.908630 1239.128662,209.538971 
	C1238.406738,226.841721 1238.750610,244.188950 1238.638794,261.517029 
	C1238.626099,263.485809 1238.637085,265.454712 1238.637085,267.733398 
	C1233.612671,267.733398 1229.026489,267.733398 1224.067261,267.733398 
	C1224.067261,239.411865 1224.067261,211.035141 1224.067261,182.411957 
	C1228.776978,182.411957 1233.358643,182.411957 1238.317749,182.411957 
	C1238.515259,184.999374 1238.699585,187.415283 1238.823486,189.039993 
	C1244.124023,186.255386 1249.246094,182.421997 1254.986694,180.857986 
	C1261.188477,179.168243 1267.459473,181.147705 1272.633301,186.315414 
	C1270.453125,189.638489 1268.381470,192.795975 1266.113770,196.272980 
z"/>
<path fill="#F9D702" opacity="1.000000" stroke="none" 
	d="
M914.285889,214.999847 
	C914.285950,203.900543 914.285950,193.301270 914.285950,182.439301 
	C919.487610,182.439301 924.078308,182.439301 929.002258,182.439301 
	C929.147705,184.906097 929.291626,187.347672 929.505737,190.980911 
	C939.816528,179.324326 950.760010,176.622192 963.591003,186.142593 
	C960.723389,190.442566 958.169800,194.271774 955.797852,197.828613 
	C951.873474,196.638916 948.365662,195.027252 944.716431,194.586151 
	C937.653259,193.732391 932.743530,197.101837 930.945435,204.022491 
	C929.871460,208.155716 929.371216,212.538635 929.317383,216.818161 
	C929.127258,231.955200 929.240601,247.096069 929.238953,262.235474 
	C929.238770,264.046844 929.239014,265.858185 929.239014,267.859009 
	C924.204407,267.859009 919.584656,267.859009 914.285889,267.859009 
	C914.285889,250.321411 914.285889,232.910629 914.285889,214.999847 
z"/>
<path fill="#FAD802" opacity="1.000000" stroke="none" 
	d="
M1361.815674,138.562622 
	C1362.743896,139.902298 1363.459351,141.477478 1364.636841,142.541336 
	C1370.018921,147.404037 1374.799072,152.644150 1376.622681,159.924286 
	C1378.271851,166.508575 1376.092163,171.765930 1370.770142,174.255386 
	C1366.463257,176.270065 1361.580688,175.224014 1359.103271,171.755829 
	C1356.798706,168.529922 1357.175049,163.510315 1360.194214,160.258667 
	C1361.526611,158.823563 1363.241821,157.744064 1365.720825,155.748428 
	C1362.972778,152.855331 1360.420654,149.722305 1357.401978,147.133224 
	C1355.034790,145.102875 1352.113281,143.706955 1349.397827,142.096909 
	C1342.610596,138.072571 1342.473999,136.761337 1348.466797,131.317490 
	C1349.695068,130.201721 1350.953125,129.062225 1352.366821,128.216690 
	C1359.234741,124.108414 1366.618286,116.098839 1374.072388,119.631958 
	C1386.531982,125.537605 1398.247925,134.058228 1401.354126,149.430725 
	C1402.192749,153.581299 1400.808105,156.984909 1397.724976,159.701675 
	C1393.623413,163.315918 1387.421021,163.225342 1384.201416,159.616608 
	C1380.843750,155.853165 1381.450684,150.133255 1385.680176,146.247650 
	C1386.648682,145.357925 1387.782349,144.648209 1389.314697,143.500107 
	C1385.439575,136.646957 1379.566162,132.827637 1372.166016,130.649933 
	C1369.967041,130.002808 1368.447876,126.991013 1365.620361,129.536240 
	C1363.532959,131.415314 1361.149048,132.962555 1359.030029,134.809921 
	C1357.153198,136.446152 1357.395508,137.640488 1360.671753,138.039490 
	C1361.462646,138.306702 1361.639160,138.434662 1361.815674,138.562622 
z"/>
<path fill="#F5D403" opacity="1.000000" stroke="none" 
	d="
M1206.666870,328.265564 
	C1207.477539,328.676819 1208.493286,328.972198 1209.065552,328.594879 
	C1219.598389,321.649139 1230.902954,326.211914 1233.292969,338.566589 
	C1233.855225,341.472900 1234.061768,344.543854 1233.823120,347.489716 
	C1233.292603,354.039368 1231.401733,360.175751 1224.672485,362.911499 
	C1218.119629,365.575500 1211.943115,364.567810 1207.154297,359.452148 
	C1205.531250,361.081116 1203.986572,362.631531 1202.441895,364.181946 
	C1202.050659,363.894165 1201.659546,363.606384 1201.268311,363.318573 
	C1201.268311,345.902954 1201.268311,328.487335 1201.268311,310.691589 
	C1202.925903,310.691589 1204.604736,310.691589 1206.665527,310.691589 
	C1206.665527,316.598907 1206.665527,322.217743 1206.666870,328.265564 
M1227.896606,348.009857 
	C1227.627563,344.548798 1227.766113,340.993866 1226.995483,337.648315 
	C1225.780273,332.371948 1222.003540,329.908203 1216.722046,330.191193 
	C1211.416260,330.475464 1207.952271,333.264526 1207.267944,338.687408 
	C1206.773071,342.608276 1206.703003,346.704773 1207.252930,350.608917 
	C1208.257690,357.740387 1213.974976,361.075287 1220.850952,358.936676 
	C1225.736328,357.417145 1226.909302,353.203735 1227.896606,348.009857 
z"/>
<path fill="#F3D203" opacity="1.000000" stroke="none" 
	d="
M882.965820,361.951660 
	C877.887512,362.771179 873.164124,363.487427 868.415833,363.944672 
	C867.168274,364.064789 865.803162,363.495422 864.560730,363.050720 
	C855.670959,359.868591 851.458374,349.502808 854.429016,338.224670 
	C856.918213,328.774353 864.254822,324.013763 873.579651,325.798218 
	C882.058228,327.420746 886.452454,335.074280 884.791504,345.925110 
	C876.617798,345.925110 868.360535,345.925110 860.130432,345.925110 
	C859.671936,358.049774 867.304504,361.699463 883.766663,357.083923 
	C883.597656,358.816742 883.454590,360.284180 882.965820,361.951660 
M870.490601,341.219635 
	C873.270569,341.219635 876.050598,341.219635 878.805603,341.219635 
	C879.061707,334.121002 876.158569,330.366150 870.621216,330.089996 
	C864.620728,329.790741 860.635681,333.843445 860.186462,341.219635 
	C863.312927,341.219635 866.413635,341.219635 870.490601,341.219635 
z"/>
<path fill="#F3D203" opacity="1.000000" stroke="none" 
	d="
M622.702148,355.106445 
	C622.032349,349.868622 620.733337,344.898651 621.195312,340.098206 
	C622.156311,330.112976 630.132935,324.242401 639.610413,325.626221 
	C648.767822,326.963287 653.410278,334.449463 651.811035,345.877502 
	C643.662781,345.877502 635.436340,345.877502 627.252136,345.877502 
	C626.362488,357.934937 633.523071,361.351562 650.316895,357.308960 
	C651.667053,360.445648 650.636047,362.077179 647.358765,363.086609 
	C636.876953,366.315033 628.103394,363.675140 622.702148,355.106445 
M628.043396,341.122833 
	C633.980835,341.122833 639.918274,341.122833 645.832764,341.122833 
	C646.039978,334.063263 643.135254,330.341125 637.572449,330.087860 
	C631.548279,329.813629 627.551758,333.939575 628.043396,341.122833 
z"/>
<path fill="#F3D203" opacity="1.000000" stroke="none" 
	d="
M1117.449097,325.518555 
	C1129.971069,325.690338 1136.220215,333.575165 1133.739868,345.921204 
	C1125.687744,345.921204 1117.562866,345.921204 1109.490479,345.921204 
	C1107.823120,357.634979 1115.942749,361.585205 1132.294312,357.268005 
	C1133.872314,360.749390 1132.383789,362.229431 1129.008911,363.183319 
	C1119.906494,365.756073 1111.003418,363.816589 1106.496826,357.995239 
	C1101.898560,352.055450 1101.402954,340.418152 1105.459106,333.263519 
	C1108.019165,328.747772 1111.865479,326.151031 1117.449097,325.518555 
M1118.518066,341.219635 
	C1121.631226,341.219635 1124.744507,341.219635 1127.828369,341.219635 
	C1128.141846,334.149872 1125.228760,330.364349 1119.681519,330.087311 
	C1113.694580,329.788361 1109.752930,333.783813 1109.203857,341.219635 
	C1111.995605,341.219635 1114.771362,341.219635 1118.518066,341.219635 
z"/>
<path fill="#F3D203" opacity="1.000000" stroke="none" 
	d="
M1163.669189,358.266602 
	C1159.049683,351.987610 1158.941040,345.191864 1160.424316,338.416901 
	C1162.570435,328.615540 1170.737549,323.690552 1180.293091,325.913025 
	C1188.317139,327.779297 1192.590088,335.819305 1190.669189,346.024841 
	C1182.515259,346.024841 1174.273071,346.024841 1166.047119,346.024841 
	C1165.879639,358.193604 1173.242188,361.685852 1189.218750,357.237122 
	C1190.514526,360.194733 1189.995850,362.191986 1186.566650,362.978699 
	C1178.355469,364.862457 1170.391235,365.490875 1163.669189,358.266602 
M1183.190430,341.202484 
	C1183.773926,339.983429 1184.974121,338.688171 1184.834595,337.558411 
	C1184.213257,332.529388 1179.961914,329.518097 1174.860962,330.123260 
	C1169.512939,330.757690 1166.250977,334.889008 1166.427979,341.221161 
	C1171.693115,341.221161 1176.974487,341.221161 1183.190430,341.202484 
z"/>
<path fill="#F3D203" opacity="1.000000" stroke="none" 
	d="
M986.894104,359.884613 
	C986.743286,360.750793 986.749329,361.429260 986.432861,361.654541 
	C976.300842,368.865967 959.920532,363.095947 957.512878,351.086487 
	C956.631653,346.690857 956.935669,341.738464 957.979553,337.344330 
	C959.983643,328.908081 966.888123,324.545776 975.099670,325.518524 
	C982.996582,326.454010 987.589722,331.596344 988.327759,340.425903 
	C988.463074,342.044525 988.347046,343.684143 988.347046,345.798828 
	C979.847656,345.798828 971.620972,345.798828 963.458984,345.798828 
	C962.497986,353.891449 966.513184,358.976379 973.980286,359.072723 
	C977.407043,359.116974 980.836792,358.094025 984.285950,357.850342 
	C985.114807,357.791779 986.026794,358.909088 986.894104,359.884613 
M963.560364,337.473083 
	C963.398499,338.565002 963.236633,339.656921 963.059204,340.853333 
	C969.596130,340.853333 975.804504,340.853333 982.009399,340.853333 
	C981.905457,334.496552 979.815613,331.283783 975.361450,330.276245 
	C970.601440,329.199524 966.696533,331.386261 963.560364,337.473083 
z"/>
<path fill="#F2D104" opacity="1.000000" stroke="none" 
	d="
M1288.357788,330.310913 
	C1283.894653,330.782288 1279.824463,331.348389 1275.219727,331.988831 
	C1274.949585,331.351410 1274.406860,330.070160 1273.676514,328.346466 
	C1276.631592,327.458679 1279.102051,326.418579 1281.674072,325.993927 
	C1294.650879,323.851471 1299.651855,328.152954 1299.693359,341.299561 
	C1299.711304,346.964050 1299.856567,352.635803 1299.603027,358.288971 
	C1299.522949,360.074280 1298.336792,361.809967 1297.656860,363.568359 
	C1296.323608,362.247772 1294.990234,360.927155 1294.390625,360.333282 
	C1289.757324,361.609436 1285.225708,363.567169 1280.561157,363.964447 
	C1274.614502,364.470856 1270.639771,360.826263 1269.872314,355.690033 
	C1268.948730,349.508698 1271.234741,344.917480 1277.177979,343.226349 
	C1282.396729,341.741394 1287.925903,341.347565 1293.800903,340.393402 
	C1294.256592,336.219421 1294.000000,332.198975 1288.357788,330.310913 
M1291.393311,345.150848 
	C1287.479004,345.775940 1283.226685,345.681702 1279.779419,347.300995 
	C1277.773071,348.243378 1276.213867,351.885406 1276.073242,354.403229 
	C1275.987549,355.939087 1278.714722,358.555634 1280.635620,359.113525 
	C1287.468994,361.098358 1293.500122,356.580353 1293.841187,349.534943 
	C1293.910767,348.098389 1292.821289,346.605743 1291.393311,345.150848 
z"/>
<path fill="#F3D203" opacity="1.000000" stroke="none" 
	d="
M1353.988037,345.954620 
	C1349.188110,345.954620 1344.881348,345.954620 1340.601562,345.954620 
	C1339.677124,357.864044 1347.837402,361.761993 1363.599121,357.194672 
	C1365.008179,360.559784 1364.013672,362.421326 1360.348511,363.171661 
	C1352.607422,364.756409 1344.872925,365.489838 1338.950195,359.077026 
	C1332.925659,352.553894 1332.993652,344.531799 1335.430542,336.547791 
	C1337.738037,328.987396 1344.163086,324.835846 1351.772217,325.436951 
	C1359.413208,326.040558 1364.214600,330.592377 1365.585449,338.738525 
	C1365.939575,340.842224 1365.860229,343.018829 1366.024170,345.954620 
	C1361.980835,345.954620 1358.230957,345.954620 1353.988037,345.954620 
M1354.296387,341.225586 
	C1356.065430,341.225586 1357.834595,341.225586 1359.644775,341.225586 
	C1359.081177,333.519836 1356.430054,330.286011 1350.971069,330.078796 
	C1345.031372,329.853333 1341.359619,333.603485 1340.468750,341.225647 
	C1344.794434,341.225647 1349.074097,341.225647 1354.296387,341.225586 
z"/>
<path fill="#F5D403" opacity="1.000000" stroke="none" 
	d="
M788.463684,331.040741 
	C788.187866,335.404419 787.619446,339.419708 788.019470,343.336090 
	C789.225647,355.145172 797.978577,360.960358 810.648682,358.694946 
	C812.592712,358.347412 814.508728,357.843048 816.519714,357.392822 
	C817.950073,360.872040 817.055847,362.514679 813.302185,363.383179 
	C801.419556,366.132660 790.658142,363.064941 785.511047,355.066284 
	C779.370544,345.523865 780.105591,329.071167 787.047363,320.677155 
	C793.763062,312.556549 806.488831,310.498169 818.717468,315.863495 
	C818.156372,317.257111 817.585510,318.674866 816.878723,320.430450 
	C809.791016,318.200531 802.534912,315.965271 796.177612,320.596588 
	C792.936096,322.958069 791.090454,327.235657 788.463684,331.040741 
z"/>
<path fill="#F5D403" opacity="1.000000" stroke="none" 
	d="
M455.196411,338.938019 
	C456.122803,343.206635 456.459961,347.325806 458.093628,350.842651 
	C461.297577,357.739960 468.871857,360.397339 478.363800,358.690002 
	C480.322357,358.337708 482.253540,357.833435 484.318848,357.372040 
	C485.771362,360.754547 485.011505,362.426453 481.229401,363.329010 
	C469.425781,366.145905 458.484802,363.122528 453.327118,355.221954 
	C447.110107,345.698761 447.753754,329.212372 454.670929,320.800140 
	C461.590240,312.385315 475.946381,310.197327 486.326416,316.175690 
	C485.794006,317.455811 485.245697,318.774139 484.554199,320.436768 
	C476.668365,317.867401 468.823608,316.039581 461.769318,321.886322 
	C456.609802,326.162598 455.427521,332.196259 455.196411,338.938019 
z"/>
<path fill="#F7D502" opacity="1.000000" stroke="none" 
	d="
M1059.930054,346.899872 
	C1059.602417,342.848114 1058.912598,339.181793 1059.153809,335.577820 
	C1060.418091,316.682007 1079.368042,306.660156 1096.254761,316.135651 
	C1095.737915,317.415375 1095.204712,318.735504 1094.532349,320.399933 
	C1084.814941,317.337708 1074.974121,315.431580 1068.599731,325.662903 
	C1063.280884,334.200043 1063.402344,343.764984 1068.853027,352.159302 
	C1075.165527,361.880737 1084.993286,359.280701 1094.298462,357.439423 
	C1095.812866,360.949921 1094.688232,362.463989 1091.040405,363.347748 
	C1075.431274,367.129272 1064.248901,361.461639 1059.930054,346.899872 
z"/>
<path fill="#F7D502" opacity="1.000000" stroke="none" 
	d="
M920.623657,330.717957 
	C921.270630,336.493652 921.879333,341.919159 922.113159,347.360748 
	C922.333984,352.500732 922.160645,357.657654 922.160645,362.747223 
	C918.447571,363.524048 918.447571,363.524048 917.220581,360.329346 
	C912.246155,361.623199 907.533752,363.566132 902.705078,363.919678 
	C896.929871,364.342529 893.188721,360.585144 892.331909,355.200989 
	C891.490112,349.912018 894.015381,345.321075 899.314026,343.353485 
	C901.925049,342.383881 904.786926,342.009155 907.570251,341.606934 
	C910.354614,341.204559 913.182556,341.103760 915.950562,340.874176 
	C918.079163,330.689026 912.836670,328.215637 898.050537,332.496582 
	C897.579468,331.359161 897.095703,330.191254 896.629883,329.066467 
	C905.019104,323.790222 915.141296,324.416260 920.623657,330.717957 
M916.067200,352.266693 
	C916.268555,350.036835 916.469910,347.806946 916.745483,344.755096 
	C911.932922,345.349854 907.815002,345.530212 903.864624,346.438690 
	C899.854675,347.360840 897.515320,350.251678 898.290833,354.524261 
	C899.124573,359.116913 902.759888,359.822418 906.687622,359.465027 
	C910.936035,359.078491 914.269287,357.239441 916.067200,352.266693 
z"/>
<path fill="#F5D403" opacity="1.000000" stroke="none" 
	d="
M501.517700,327.310852 
	C511.333893,323.681885 519.577759,325.721497 524.032593,332.613251 
	C528.882141,340.115631 528.049194,353.142914 522.329285,359.252686 
	C514.764526,367.333038 500.179596,365.355225 495.128906,355.564117 
	C490.091278,345.798340 492.761658,333.423462 501.517700,327.310852 
M515.624939,331.588135 
	C508.229858,328.926117 502.722809,330.382904 500.355042,336.078369 
	C497.974945,341.803467 497.915710,347.832916 500.362976,353.533081 
	C503.420502,360.654480 514.043640,361.616516 518.542480,355.395020 
	C522.909973,349.355133 521.752502,337.390472 515.624939,331.588135 
z"/>
<path fill="#F0CF04" opacity="1.000000" stroke="none" 
	d="
M605.375000,359.528870 
	C605.368347,352.757782 605.456970,346.431854 605.331055,340.110260 
	C605.196777,333.366943 602.832458,330.556000 597.352844,330.217926 
	C590.923218,329.821228 586.629883,333.024658 586.067810,339.508484 
	C585.508850,345.956360 585.502258,352.475006 585.653503,358.953247 
	C585.748718,363.032623 584.466431,364.538513 580.169983,363.123199 
	C580.169983,350.946594 580.169983,338.716949 580.169983,326.523438 
	C584.389343,324.641052 584.947327,327.487701 585.266785,331.107513 
	C589.725464,326.555939 594.619934,324.719269 600.460388,325.638550 
	C607.122131,326.687103 610.681580,330.096069 610.913025,336.869568 
	C611.208130,345.505341 610.984497,354.158813 610.984497,363.037201 
	C608.022461,363.793396 605.177490,364.827240 605.375000,359.528870 
z"/>
<path fill="#F5D403" opacity="1.000000" stroke="none" 
	d="
M542.581909,362.172821 
	C540.860657,362.991150 539.222290,363.389862 537.204468,363.880920 
	C537.204468,350.848389 537.204468,338.607941 537.204468,326.417267 
	C541.211853,324.988312 542.404602,327.043823 542.077515,331.455505 
	C547.041077,326.339783 552.151611,324.674103 558.143005,325.750580 
	C564.091187,326.819214 567.636292,329.998047 567.879944,335.994263 
	C568.243713,344.945526 567.974426,353.922546 567.974426,363.235596 
	C566.242432,363.235596 564.696716,363.235596 562.559937,363.235596 
	C562.559937,355.478516 562.704529,347.860992 562.521423,340.251343 
	C562.316223,331.723785 557.182434,328.258301 549.219238,330.973297 
	C544.750977,332.496735 543.208130,336.140076 543.013184,340.290955 
	C542.677612,347.434753 542.758545,354.598083 542.581909,362.172821 
z"/>
<path fill="#F5D403" opacity="1.000000" stroke="none" 
	d="
M1311.763184,347.799530 
	C1311.763184,342.024139 1311.763184,336.724426 1311.763184,331.286377 
	C1309.764893,330.773071 1308.085693,330.341797 1305.926636,329.787231 
	C1306.692871,328.669250 1307.085327,327.416290 1307.728149,327.270844 
	C1311.480347,326.422180 1312.386230,323.624451 1313.190918,320.426788 
	C1313.482788,319.267151 1314.866211,318.382263 1315.751587,317.372009 
	C1316.291504,318.581146 1317.068237,319.745331 1317.308838,321.011383 
	C1317.580811,322.442505 1317.371460,323.965118 1317.371460,325.800415 
	C1320.997925,325.800415 1324.275513,325.800415 1327.647339,325.800415 
	C1328.867310,329.040619 1328.640625,330.887238 1324.765991,330.628754 
	C1322.492554,330.477112 1320.200684,330.601074 1317.591553,330.601074 
	C1317.591553,338.844849 1317.195435,346.476501 1317.710693,354.046173 
	C1318.163818,360.705322 1323.618652,359.378235 1328.229126,359.097839 
	C1329.132812,361.923279 1328.715820,363.516907 1325.477905,364.011414 
	C1316.778442,365.339996 1312.014038,361.517609 1311.784302,352.770294 
	C1311.744995,351.272766 1311.768799,349.773621 1311.763184,347.799530 
z"/>
<path fill="#F5D403" opacity="1.000000" stroke="none" 
	d="
M666.146179,349.307373 
	C669.307739,359.298706 672.286255,360.525879 686.145447,357.823517 
	C687.887390,361.334717 686.161316,362.791077 682.921265,363.644165 
	C668.108643,367.544281 657.596741,356.783844 660.190552,340.327240 
	C662.197937,327.590790 674.346619,321.735596 687.021545,327.659576 
	C686.587036,328.967896 686.141113,330.310791 685.732178,331.542114 
	C685.152771,331.653351 684.808105,331.829224 684.525757,331.758057 
	C671.161255,328.388245 665.673767,332.705383 665.947693,346.400909 
	C665.964294,347.230591 666.037781,348.059113 666.146179,349.307373 
z"/>
<path fill="#F2D104" opacity="1.000000" stroke="none" 
	d="
M945.013306,326.004486 
	C947.122314,326.004547 948.767944,326.004547 951.202637,326.004547 
	C950.153809,334.153748 943.264709,328.437927 940.098633,331.832886 
	C940.098633,338.616241 939.875183,346.087402 940.176819,353.537354 
	C940.379211,358.536987 942.681885,359.580078 950.762573,359.184937 
	C951.783447,362.184509 951.067932,363.739258 947.565613,364.073914 
	C938.692444,364.921814 934.450256,361.331543 934.241943,352.250458 
	C934.085388,345.427185 934.116028,338.599640 934.051819,331.774109 
	C934.050415,331.624725 933.910767,331.476654 933.662537,330.985565 
	C932.343933,330.763611 930.798950,330.503540 927.974121,330.028046 
	C930.749878,327.475403 933.036377,325.773254 934.795776,323.636993 
	C936.410034,321.676819 934.682129,317.180542 939.855347,317.428925 
	C939.855347,320.135193 939.855347,322.734436 939.855347,325.709625 
	C941.673645,325.823792 943.111816,325.914124 945.013306,326.004486 
z"/>
<path fill="#F0CF04" opacity="1.000000" stroke="none" 
	d="
M712.473999,329.562805 
	C709.042236,330.294983 705.787598,330.647491 701.992004,331.058563 
	C701.992004,338.850128 701.675476,346.794830 702.242676,354.675995 
	C702.365234,356.378662 705.482056,358.216431 707.578430,359.294006 
	C708.820435,359.932373 710.764832,359.204285 712.488464,359.084015 
	C713.681274,362.476746 712.471069,363.742584 709.239319,364.073120 
	C700.375061,364.979767 696.047729,361.260895 695.976379,352.318787 
	C695.920654,345.339355 695.965210,338.359131 695.965210,331.132629 
	C694.232178,330.822723 692.670715,330.543457 691.188049,330.278320 
	C691.008057,329.820709 690.705200,329.331879 690.796326,329.241852 
	C694.039490,326.037720 697.953857,323.315857 698.297974,318.106232 
	C698.316772,317.822662 699.794128,317.299011 700.406982,317.488220 
	C700.989563,317.668091 701.656677,318.608521 701.713196,319.263977 
	C701.883484,321.240448 701.774597,323.240906 701.774597,326.002075 
	C704.563049,326.002075 707.146057,326.112213 709.715027,325.970337 
	C712.157043,325.835419 713.109619,326.797546 712.473999,329.562805 
z"/>
<path fill="#F3D203" opacity="1.000000" stroke="none" 
	d="
M1144.003784,320.057312 
	C1144.003784,316.748108 1144.003784,313.928131 1144.003784,310.692657 
	C1145.922241,310.692657 1147.610229,310.692657 1149.600586,310.692657 
	C1149.600586,328.184479 1149.600586,345.564545 1149.600586,363.349243 
	C1147.885620,363.440186 1146.305664,363.523956 1144.003784,363.645996 
	C1144.003784,349.029633 1144.003784,334.788086 1144.003784,320.057312 
z"/>
<path fill="#F2D104" opacity="1.000000" stroke="none" 
	d="
M827.059753,343.002014 
	C827.059753,337.198792 827.059753,331.894989 827.059753,326.278656 
	C828.675720,326.172577 829.931458,326.090118 831.489868,325.987793 
	C831.878784,327.815002 832.237732,329.501526 832.733276,331.829681 
	C837.217957,327.225281 841.780334,323.845398 848.470947,326.181091 
	C848.316406,327.660217 848.166138,329.099335 847.983276,330.849640 
	C847.035156,330.849640 846.257507,330.859253 845.480042,330.848145 
	C837.825378,330.738892 833.372437,334.860229 833.021423,342.558655 
	C832.862305,346.048218 832.965332,349.549927 832.958313,353.046143 
	C832.951721,356.343384 832.956848,359.640625 832.956848,363.325592 
	C830.986206,363.425659 829.404724,363.505951 827.059753,363.625031 
	C827.059753,356.672363 827.059753,350.086884 827.059753,343.002014 
z"/>
<path fill="#F0CF04" opacity="1.000000" stroke="none" 
	d="
M1243.843872,340.007263 
	C1243.843872,335.214355 1243.843872,330.919586 1243.843872,326.683899 
	C1248.545654,325.908142 1248.545654,325.908142 1249.295532,332.486542 
	C1253.491089,327.030151 1258.236206,323.949677 1265.057251,326.099640 
	C1264.959229,327.606506 1264.866699,329.030121 1264.742310,330.942108 
	C1262.564697,330.942108 1260.593018,330.734924 1258.680176,330.982483 
	C1253.701294,331.626801 1250.091187,335.837097 1249.811401,342.001770 
	C1249.497070,348.927460 1249.739014,355.878418 1249.739014,363.259277 
	C1247.626953,363.396118 1246.078735,363.496429 1243.843872,363.641235 
	C1243.843872,355.656647 1243.843872,348.081024 1243.843872,340.007263 
z"/>
<path fill="#F7D502" opacity="1.000000" stroke="none" 
	d="
M1016.304443,335.583649 
	C1018.674011,330.384125 1021.985046,328.731110 1026.254517,330.262695 
	C1029.988647,331.602203 1031.798950,336.649231 1030.244019,341.332886 
	C1028.799194,345.685211 1025.438110,346.821198 1021.502441,345.877625 
	C1016.314575,344.633759 1015.862000,340.418488 1016.304443,335.583649 
z"/>
<path fill="#F9D702" opacity="1.000000" stroke="none" 
	d="
M746.787720,346.060516 
	C740.106628,345.472473 737.789917,342.427216 738.728577,336.035583 
	C739.394226,331.502960 742.627014,329.199097 747.298462,329.985168 
	C750.967163,330.602509 752.725525,332.995148 752.975342,336.534637 
	C753.291870,341.018341 752.518860,344.933807 746.787720,346.060516 
z"/>
<path fill="#37333A" opacity="1.000000" stroke="none" 
	d="
M154.017334,326.266174 
	C154.821640,325.464539 155.542801,324.892059 156.336197,324.762756 
	C158.515015,324.407654 160.724106,324.238556 162.921219,323.995850 
	C163.031036,326.228088 164.038788,329.198578 162.988037,330.476654 
	C162.014801,331.660431 158.839493,331.145294 156.634949,331.135529 
	C155.995132,331.132721 155.359009,330.294861 154.394348,330.001862 
	C154.034058,329.008453 154.000610,327.853027 154.017334,326.266174 
z"/>
<path fill="#393539" opacity="1.000000" stroke="none" 
	d="
M1369.017700,132.243469 
	C1368.431030,132.692215 1367.844360,133.140961 1367.257690,133.589706 
	C1367.322510,133.111618 1367.387207,132.633530 1367.962158,132.142426 
	C1368.654297,132.167435 1368.836060,132.205460 1369.017700,132.243469 
z"/>
<path fill="#FAD802" opacity="1.000000" stroke="none" 
	d="
M1361.819824,136.821838 
	C1362.587280,136.155426 1363.354736,135.488998 1364.122192,134.822586 
	C1364.337524,135.013535 1364.552734,135.204483 1364.768066,135.395432 
	C1364.207397,136.116730 1363.646606,136.838028 1362.634766,137.453110 
	C1362.062378,137.171875 1361.941162,136.996857 1361.819824,136.821838 
z"/>
<path fill="#FAD802" opacity="1.000000" stroke="none" 
	d="
M1369.324951,132.082520 
	C1368.836060,132.205460 1368.654297,132.167435 1368.199707,132.072830 
	C1368.398438,131.663513 1368.870117,131.310760 1369.341675,130.958038 
	C1369.438477,131.279221 1369.535278,131.600403 1369.324951,132.082520 
z"/>
<path fill="#FAD802" opacity="1.000000" stroke="none" 
	d="
M1361.029541,137.976105 
	C1360.959595,137.503693 1361.146362,137.233902 1361.576416,136.892975 
	C1361.941162,136.996857 1362.062378,137.171875 1362.347778,137.620697 
	C1362.429688,138.107025 1362.296875,138.281235 1361.964844,138.489883 
	C1361.639160,138.434662 1361.462646,138.306702 1361.029541,137.976105 
z"/>
<path fill="#2D2A3D" opacity="1.000000" stroke="none" 
	d="
M78.909271,183.787521 
	C78.909187,167.022446 78.909187,150.735443 78.909187,134.207703 
	C83.140778,134.207703 86.913277,134.207703 91.062180,134.207703 
	C91.062180,152.112640 91.062180,169.998566 91.062180,188.277771 
	C87.307358,188.277771 83.570221,188.277771 79.273544,188.277771 
	C79.164093,187.071945 79.036720,185.668777 78.909271,183.787521 
z"/>
<path fill="#2D2A3D" opacity="1.000000" stroke="none" 
	d="
M66.165039,172.996017 
	C66.165047,178.297958 66.165047,183.101013 66.165047,188.283386 
	C63.476101,188.283386 61.086628,188.283386 58.296875,188.283386 
	C58.296875,170.388046 58.296875,152.424820 58.296875,134.210953 
	C60.757973,134.210953 63.161770,134.210953 66.165039,134.210953 
	C66.165039,147.050064 66.165039,159.773605 66.165039,172.996017 
z"/>
<path fill="#534B31" opacity="1.000000" stroke="none" 
	d="
M53.695869,151.002609 
	C53.694996,162.657364 53.760357,173.813538 53.602356,184.966553 
	C53.584351,186.237610 52.313782,187.490921 51.624001,188.752457 
	C50.826061,187.600693 49.342896,186.454605 49.333324,185.296326 
	C49.197151,168.814941 49.257343,152.331894 49.291107,135.849289 
	C49.292080,135.374039 49.523434,134.899246 49.658955,134.379822 
	C52.335918,133.284119 53.761375,133.861664 53.707912,137.017258 
	C53.631771,141.511322 53.693237,146.007690 53.695869,151.002609 
z"/>
<path fill="#534B31" opacity="1.000000" stroke="none" 
	d="
M70.242569,161.999908 
	C70.243851,153.507919 70.302551,145.515320 70.216919,137.524277 
	C70.184532,134.501129 71.010948,133.016861 74.718979,134.558090 
	C74.718979,145.381439 74.719078,156.343811 74.718933,167.306183 
	C74.718864,172.967163 74.883850,178.636230 74.608452,184.283798 
	C74.534195,185.806641 73.122795,187.264252 72.325172,188.751816 
	C71.631363,187.327164 70.378273,185.918137 70.337898,184.475204 
	C70.133095,177.154953 70.242943,169.825882 70.242569,161.999908 
z"/>
<path fill="#484135" opacity="1.000000" stroke="none" 
	d="
M95.411057,147.018677 
	C95.412460,143.528137 95.536865,140.527481 95.381439,137.541412 
	C95.217293,134.387619 96.369400,133.185959 99.735916,134.314972 
	C99.735916,152.130188 99.735916,170.037048 99.735916,188.141190 
	C96.410896,189.567001 95.361481,188.287064 95.382210,184.942810 
	C95.459518,172.467285 95.411804,159.990997 95.411057,147.018677 
z"/>
<path fill="#2D2A3D" opacity="1.000000" stroke="none" 
	d="
M106.877396,188.537323 
	C105.619194,187.559784 104.080620,186.509171 104.071106,185.444901 
	C103.920021,168.528397 103.964775,151.610153 104.983253,133.624603 
	C106.013931,134.549042 107.934593,135.465256 107.943222,136.399139 
	C108.099571,153.328384 108.030685,170.259781 107.971977,187.190582 
	C107.970512,187.613785 107.539207,188.035477 106.877396,188.537323 
z"/>
<path fill="#37333A" opacity="1.000000" stroke="none" 
	d="
M114.300667,305.483765 
	C111.841583,305.586517 108.894150,306.185455 107.659164,305.000153 
	C106.620880,304.003632 106.962959,300.597809 107.881569,298.901825 
	C108.422729,297.902649 111.637451,297.372498 113.020615,298.005676 
	C116.216118,299.468536 116.010368,302.367889 114.300667,305.483765 
z"/>
<path fill="#393539" opacity="1.000000" stroke="none" 
	d="
M34.593735,298.557007 
	C34.656605,301.221863 34.823307,303.747620 34.020409,305.914062 
	C33.780495,306.561401 30.115318,306.940765 29.283384,306.136108 
	C27.986557,304.881836 26.857258,302.272430 27.279434,300.662781 
	C28.230734,297.035736 31.054770,296.390869 34.593735,298.557007 
z"/>
<path fill="#393539" opacity="1.000000" stroke="none" 
	d="
M58.837475,301.330505 
	C59.740345,297.887970 61.978443,296.293854 64.715561,297.779205 
	C66.257767,298.616089 67.666168,301.394440 67.501587,303.144653 
	C67.370270,304.541168 64.871994,306.593109 63.240891,306.783661 
	C60.065109,307.154694 58.717312,304.772400 58.837475,301.330505 
z"/>
<path fill="#37333A" opacity="1.000000" stroke="none" 
	d="
M90.640533,302.818787 
	C90.741623,298.803467 92.499130,296.621155 96.267509,297.555054 
	C99.382881,298.327118 100.448021,300.998657 99.162315,303.813354 
	C98.538383,305.179260 96.348572,306.959625 95.263214,306.724701 
	C93.564796,306.357147 92.202019,304.438629 90.640533,302.818787 
z"/>
<path fill="#37333A" opacity="1.000000" stroke="none" 
	d="
M123.565933,305.487427 
	C121.744522,302.577515 121.694298,299.893036 124.398788,298.247986 
	C125.655983,297.483276 128.525360,297.393768 129.284805,298.238312 
	C130.493500,299.582489 131.418640,302.235748 130.914352,303.851929 
	C129.780701,307.485016 126.947685,307.888794 123.565933,305.487427 
z"/>
<path fill="#393539" opacity="1.000000" stroke="none" 
	d="
M81.899231,306.015015 
	C79.444038,305.686066 76.415565,305.768829 75.421333,304.387482 
	C74.560226,303.191071 75.457008,299.908630 76.644447,298.374725 
	C77.327362,297.492584 80.648544,297.536743 81.877533,298.421051 
	C84.611183,300.388000 84.370331,303.218170 81.899231,306.015015 
z"/>
<path fill="#37333A" opacity="1.000000" stroke="none" 
	d="
M44.891682,298.049927 
	C48.286072,296.511444 50.796047,297.513184 51.496815,300.524872 
	C51.885937,302.197205 50.957691,304.901611 49.658497,306.006195 
	C48.661736,306.853607 45.577412,306.610077 44.438679,305.647888 
	C41.906715,303.508514 42.298752,300.683136 44.891682,298.049927 
z"/>
<path fill="#302E3B" opacity="1.000000" stroke="none" 
	d="
M211.497681,183.427887 
	C213.842575,178.634460 215.996567,174.162918 218.384781,169.205124 
	C222.201004,171.024155 225.718475,172.700775 229.735703,174.615616 
	C221.823746,191.025635 214.066452,207.114868 206.057587,223.725891 
	C202.241028,221.926620 198.725632,220.269333 194.679749,218.361954 
	C200.295456,206.671829 205.801117,195.210800 211.497681,183.427887 
z"/>
<path fill="#322F3B" opacity="1.000000" stroke="none" 
	d="
M193.571808,191.614929 
	C190.077164,198.774872 186.772369,205.613159 183.315872,212.765381 
	C180.727753,211.542847 178.522507,210.501160 175.748169,209.190674 
	C183.658615,192.782455 191.474380,176.570587 199.454941,160.016922 
	C202.051666,161.268661 204.377594,162.389862 207.012863,163.660156 
	C202.493301,173.084900 198.127487,182.189087 193.571808,191.614929 
z"/>
<path fill="#37333A" opacity="1.000000" stroke="none" 
	d="
M225.596985,202.628067 
	C221.599106,210.859741 217.790634,218.769516 213.756073,227.148849 
	C212.427124,226.632263 211.187744,226.150482 209.666229,225.559036 
	C217.264374,209.805557 224.713425,194.464066 232.047760,179.067963 
	C233.517212,175.983353 235.047531,176.742996 237.127167,178.660095 
	C233.361160,186.512405 229.573776,194.409286 225.596985,202.628067 
z"/>
<path fill="#393539" opacity="1.000000" stroke="none" 
	d="
M187.501434,165.416290 
	C188.702484,162.998245 189.464340,160.717834 190.825531,158.881775 
	C191.540344,157.917618 193.304581,157.731461 194.594910,157.193970 
	C194.852783,157.675217 195.110657,158.156479 195.368530,158.637726 
	C187.577164,174.767075 179.785812,190.896423 171.894730,207.232208 
	C170.564407,206.583939 169.573196,206.100922 168.214066,205.438614 
	C174.655609,192.047516 180.983368,178.892975 187.501434,165.416290 
z"/>
<path fill="#393539" opacity="1.000000" stroke="none" 
	d="
M226.980621,208.965454 
	C231.677216,199.234665 236.238312,189.854462 240.799408,180.474274 
	C241.315979,180.385590 241.832550,180.296890 242.349121,180.208206 
	C242.838409,181.468994 244.099960,183.094086 243.702530,183.936569 
	C236.341385,199.541229 228.782394,215.052536 221.308807,230.493195 
	C217.962097,230.301163 217.164658,229.140839 218.571121,226.363724 
	C221.424591,220.729507 224.097687,215.003967 226.980621,208.965454 
z"/>
<path fill="#393539" opacity="1.000000" stroke="none" 
	d="
M205.847229,175.759644 
	C207.147980,173.029602 208.387344,170.680634 209.437073,168.249802 
	C210.704681,165.314331 212.196915,165.372025 214.254623,167.841675 
	C206.859787,183.151962 199.486359,198.528793 191.929291,213.814835 
	C191.425568,214.833710 189.528458,215.163742 188.279449,215.814163 
	C187.913666,215.346039 187.547867,214.877899 187.182083,214.409760 
	C193.355331,201.641312 199.528580,188.872879 205.847229,175.759644 
z"/>
<path fill="#37333A" opacity="1.000000" stroke="none" 
	d="
M178.496460,332.558533 
	C177.521194,334.990082 176.675827,337.388916 175.042389,338.977264 
	C174.479172,339.524933 170.967163,338.451508 170.547760,337.413391 
	C169.874695,335.747437 169.932281,332.929779 170.968002,331.604767 
	C173.261963,328.670074 176.082336,329.212616 178.496460,332.558533 
z"/>
<path fill="#322F3B" opacity="1.000000" stroke="none" 
	d="
M186.568420,337.223633 
	C190.732086,336.384674 193.379562,337.613007 192.872879,341.795441 
	C192.686539,343.333588 190.920486,345.319946 189.425812,345.860931 
	C188.193695,346.306915 184.972733,344.992310 184.937790,344.335358 
	C184.816330,342.051666 185.697922,339.714630 186.568420,337.223633 
z"/>
<path fill="#2D2B3C" opacity="1.000000" stroke="none" 
	d="
M867.356323,197.512253 
	C873.696655,202.117340 876.856201,208.024628 877.278137,215.811249 
	C860.465271,215.811249 843.884949,215.811249 827.295044,215.811249 
	C828.946167,197.130554 849.570007,187.569656 867.356323,197.512253 
z"/>
<path fill="#37333A" opacity="1.000000" stroke="none" 
	d="
M1403.852539,58.109810 
	C1404.353271,56.436428 1404.778931,54.560337 1405.953491,53.615273 
	C1409.947021,50.402050 1414.052734,47.262863 1418.442383,44.642406 
	C1420.029297,43.695000 1422.537964,44.291328 1424.625977,44.183231 
	C1424.697998,44.593422 1424.770142,45.003616 1424.842285,45.413807 
	C1419.053589,50.004066 1413.310669,54.655361 1407.404053,59.088478 
	C1406.824707,59.523262 1405.239136,58.617390 1403.852539,58.109810 
z"/>
<path fill="#2E2C3C" opacity="1.000000" stroke="none" 
	d="
M595.549866,232.729156 
	C603.955261,224.564301 613.899475,226.447632 623.655945,227.356476 
	C624.475830,227.432861 625.273010,227.741837 626.083618,227.930237 
	C636.207092,230.283157 637.877136,233.610336 633.803894,243.317108 
	C628.605957,255.704178 610.048950,261.302551 598.876892,253.854080 
	C592.326416,249.486847 590.846680,240.870895 595.549866,232.729156 
z"/>
<path fill="#2F2C3C" opacity="1.000000" stroke="none" 
	d="
M1227.849854,348.435150 
	C1226.909302,353.203735 1225.736328,357.417145 1220.850952,358.936676 
	C1213.974976,361.075287 1208.257690,357.740387 1207.252930,350.608917 
	C1206.703003,346.704773 1206.773071,342.608276 1207.267944,338.687408 
	C1207.952271,333.264526 1211.416260,330.475464 1216.722046,330.191193 
	C1222.003540,329.908203 1225.780273,332.371948 1226.995483,337.648315 
	C1227.766113,340.993866 1227.627563,344.548798 1227.849854,348.435150 
z"/>
<path fill="#2F2C3C" opacity="1.000000" stroke="none" 
	d="
M870.002441,341.219635 
	C866.413635,341.219635 863.312927,341.219635 860.186462,341.219635 
	C860.635681,333.843445 864.620728,329.790741 870.621216,330.089996 
	C876.158569,330.366150 879.061707,334.121002 878.805603,341.219635 
	C876.050598,341.219635 873.270569,341.219635 870.002441,341.219635 
z"/>
<path fill="#2F2C3C" opacity="1.000000" stroke="none" 
	d="
M627.645569,340.934875 
	C627.551758,333.939575 631.548279,329.813629 637.572449,330.087860 
	C643.135254,330.341125 646.039978,334.063263 645.832764,341.122833 
	C639.918274,341.122833 633.980835,341.122833 627.645569,340.934875 
z"/>
<path fill="#2F2C3C" opacity="1.000000" stroke="none" 
	d="
M1118.032593,341.219635 
	C1114.771362,341.219635 1111.995605,341.219635 1109.203857,341.219635 
	C1109.752930,333.783813 1113.694580,329.788361 1119.681519,330.087311 
	C1125.228760,330.364349 1128.141846,334.149872 1127.828369,341.219635 
	C1124.744507,341.219635 1121.631226,341.219635 1118.032593,341.219635 
z"/>
<path fill="#302E3B" opacity="1.000000" stroke="none" 
	d="
M1182.723145,341.211823 
	C1176.974487,341.221161 1171.693115,341.221161 1166.427979,341.221161 
	C1166.250977,334.889008 1169.512939,330.757690 1174.860962,330.123260 
	C1179.961914,329.518097 1184.213257,332.529388 1184.834595,337.558411 
	C1184.974121,338.688171 1183.773926,339.983429 1182.723145,341.211823 
z"/>
<path fill="#2F2C3C" opacity="1.000000" stroke="none" 
	d="
M963.707886,337.096313 
	C966.696533,331.386261 970.601440,329.199524 975.361450,330.276245 
	C979.815613,331.283783 981.905457,334.496552 982.009399,340.853333 
	C975.804504,340.853333 969.596130,340.853333 963.059204,340.853333 
	C963.236633,339.656921 963.398499,338.565002 963.707886,337.096313 
z"/>
<path fill="#322F3B" opacity="1.000000" stroke="none" 
	d="
M1291.829712,345.144897 
	C1292.821289,346.605743 1293.910767,348.098389 1293.841187,349.534943 
	C1293.500122,356.580353 1287.468994,361.098358 1280.635620,359.113525 
	C1278.714722,358.555634 1275.987549,355.939087 1276.073242,354.403229 
	C1276.213867,351.885406 1277.773071,348.243378 1279.779419,347.300995 
	C1283.226685,345.681702 1287.479004,345.775940 1291.829712,345.144897 
z"/>
<path fill="#302E3B" opacity="1.000000" stroke="none" 
	d="
M1353.825073,341.225616 
	C1349.074097,341.225647 1344.794434,341.225647 1340.468750,341.225647 
	C1341.359619,333.603485 1345.031372,329.853333 1350.971069,330.078796 
	C1356.430054,330.286011 1359.081177,333.519836 1359.644775,341.225586 
	C1357.834595,341.225586 1356.065430,341.225586 1353.825073,341.225616 
z"/>
<path fill="#37333A" opacity="1.000000" stroke="none" 
	d="
M915.983765,352.650421 
	C914.269287,357.239441 910.936035,359.078491 906.687622,359.465027 
	C902.759888,359.822418 899.124573,359.116913 898.290833,354.524261 
	C897.515320,350.251678 899.854675,347.360840 903.864624,346.438690 
	C907.815002,345.530212 911.932922,345.349854 916.745483,344.755096 
	C916.469910,347.806946 916.268555,350.036835 915.983765,352.650421 
z"/>
<path fill="#2F2C3C" opacity="1.000000" stroke="none" 
	d="
M515.952148,331.794403 
	C521.752502,337.390472 522.909973,349.355133 518.542480,355.395020 
	C514.043640,361.616516 503.420502,360.654480 500.362976,353.533081 
	C497.915710,347.832916 497.974945,341.803467 500.355042,336.078369 
	C502.722809,330.382904 508.229858,328.926117 515.952148,331.794403 
z"/>
</svg>